<svg width="32" height="32" viewBox="0 0 32 32" fill="none" xmlns="http://www.w3.org/2000/svg">
<g clip-path="url(#clip0_613_1834)">
<path d="M20 32L12 32L12 24L20 24L20 32Z" fill="#8A8E8F"/>
<path d="M32 23C32 24.6569 30.6569 26 29 26L2.99999 26C1.34314 26 -3.69308e-06 24.6569 -3.54306e-06 23L-1.91325e-06 5C-1.76323e-06 3.34315 1.34314 2 3 2L29 2C30.6569 2 32 3.34315 32 5L32 23Z" fill="#CDCDCE"/>
<path d="M30 21C30 21.5523 29.5523 22 29 22L3 22C2.44771 22 2 21.5523 2 21L2 5C2 4.44772 2.44772 4 3 4L29 4C29.5523 4 30 4.44772 30 5L30 21Z" fill="#FFE599"/>
<path d="M30 21C30 21.5523 29.5523 22 29 22L3 22C2.44771 22 2 21.5523 2 21V21C2 20.4477 2.44771 20 3 20L29 20C29.5523 20 30 20.4477 30 21V21Z" fill="#F6F6F6"/>
<path d="M6 7C6 7.55228 5.55228 8 5 8V8C4.44772 8 4 7.55228 4 7V7C4 6.44772 4.44772 6 5 6V6C5.55228 6 6 6.44772 6 7V7Z" fill="white"/>
<path d="M10 7C10 7.55228 9.55228 8 9 8V8C8.44772 8 8 7.55228 8 7V7C8 6.44772 8.44772 6 9 6V6C9.55228 6 10 6.44772 10 7V7Z" fill="white"/>
<path d="M14 7C14 7.55228 13.5523 8 13 8V8C12.4477 8 12 7.55228 12 7V7C12 6.44772 12.4477 6 13 6V6C13.5523 6 14 6.44772 14 7V7Z" fill="white"/>
<path d="M28 17C28 17.5523 27.5523 18 27 18V18C26.4477 18 26 17.5523 26 17V17C26 16.4477 26.4477 16 27 16V16C27.5523 16 28 16.4477 28 17V17Z" fill="white"/>
<path d="M23 30C23.5523 30 24 30.4477 24 31V31C24 31.5523 23.5523 32 23 32L9 32C8.44772 32 8 31.5523 8 31V31C8 30.4477 8.44772 30 9 30L23 30Z" fill="#CDCDCE"/>
</g>
<defs>
<clipPath id="clip0_613_1834">
<rect width="32" height="32" fill="white"/>
</clipPath>
</defs>
</svg>
