<svg width="32" height="32" viewBox="0 0 32 32" fill="none" xmlns="http://www.w3.org/2000/svg">
<path d="M0 16C0 7.16344 7.16344 0 16 0V0C24.8366 0 32 7.16344 32 16V16C32 24.8366 24.8366 32 16 32V32C7.16344 32 0 24.8366 0 16V16Z" fill="#FF0000"/>
<path d="M29 12.1L29 19.9L3 19.9L3 12.1L29 12.1Z" fill="white"/>
<path d="M29 12.1L29 19.9L3 19.9L3 12.1L29 12.1Z" fill="white"/>
<path d="M29 12.1L29 19.9L3 19.9L3 12.1L29 12.1Z" fill="white"/>
<path d="M29 12.1L29 19.9L3 19.9L3 12.1L29 12.1Z" fill="white"/>
<path d="M29 12.1L29 19.9L3 19.9L3 12.1L29 12.1Z" fill="white"/>
</svg>
