<svg width="32" height="32" viewBox="0 0 32 32" fill="none" xmlns="http://www.w3.org/2000/svg">
<path d="M22 7C22 4.23858 24.2386 2 27 2H28C30.2091 2 32 3.79086 32 6V10H22V7Z" fill="#E5CE8A"/>
<path fill-rule="evenodd" clip-rule="evenodd" d="M13 2C10.2386 2 8 4.23858 8 7V30H19C21.7614 30 24 27.7614 24 25V10V6C24 3.96019 25.5268 2.277 27.5 2.03095V2H13Z" fill="#FFEFC0"/>
<path fill-rule="evenodd" clip-rule="evenodd" d="M10 22H5H0V25C0 27.7614 2.23858 30 5 30L19 30C16.2386 30 14 27.7614 14 25L14 22H10Z" fill="#E5CE8A"/>
<path d="M22 9C22 9.55229 21.5523 10 21 10L11 10C10.4477 10 10 9.55228 10 9V9C10 8.44772 10.4477 8 11 8L21 8C21.5523 8 22 8.44772 22 9V9Z" fill="#E5CE8A"/>
<path d="M22 13C22 13.5523 21.5523 14 21 14L11 14C10.4477 14 10 13.5523 10 13V13C10 12.4477 10.4477 12 11 12L21 12C21.5523 12 22 12.4477 22 13V13Z" fill="#E5CE8A"/>
<path d="M22 17C22 17.5523 21.5523 18 21 18L11 18C10.4477 18 10 17.5523 10 17V17C10 16.4477 10.4477 16 11 16L21 16C21.5523 16 22 16.4477 22 17V17Z" fill="#E5CE8A"/>
</svg>
