<svg width="44" height="44" viewBox="0 0 44 44" fill="none" xmlns="http://www.w3.org/2000/svg">
<g clip-path="url(#clip0_658_1936)">
<path fill-rule="evenodd" clip-rule="evenodd" d="M2 6.125L2 31.875C2 33.0486 2.95139 34 4.125 34L39.875 34C41.0486 34 42 33.0486 42 31.875L42 6.125C42 4.9514 41.0486 4 39.875 4L4.125 4C2.95139 4 2 4.9514 2 6.125ZM39.875 36C42.1532 36 44 34.1532 44 31.875L44 6.125C44 3.84683 42.1532 2 39.875 2L4.125 2C1.84682 2 -9.03389e-07 3.84683 -1.10967e-06 6.125L-3.4412e-06 31.875C-3.64748e-06 34.1532 1.84682 36 4.125 36L39.875 36Z" fill="black"/>
<path fill-rule="evenodd" clip-rule="evenodd" d="M18 36L18 42L26 42L26 36L18 36ZM28 44L28 34L16 34L16 44L28 44Z" fill="black"/>
<path d="M38 29C38 29.5523 37.5523 30 37 30L7 30C6.44771 30 6 29.5523 6 29C6 28.4477 6.44771 28 7 28L37 28C37.5523 28 38 28.4477 38 29Z" fill="black"/>
<path d="M33 42C33.5523 42 34 42.4477 34 43C34 43.5523 33.5523 44 33 44L11 44C10.4477 44 10 43.5523 10 43C10 42.4477 10.4477 42 11 42L33 42Z" fill="black"/>
</g>
<defs>
<clipPath id="clip0_658_1936">
<rect width="44" height="44" fill="white"/>
</clipPath>
</defs>
</svg>
