<svg width="44" height="44" viewBox="0 0 44 44" fill="none" xmlns="http://www.w3.org/2000/svg">
<path fill-rule="evenodd" clip-rule="evenodd" d="M17.4352 4C17.4352 2.89543 18.3306 2 19.4352 2H24.5602C25.6648 2 26.5602 2.89543 26.5602 4V7.02414C26.5602 7.02414 26.5616 7.0276 26.5647 7.03167C26.572 7.04118 26.586 7.05266 26.6065 7.05898C27.5581 7.35215 28.4708 7.73365 29.335 8.19379C29.3539 8.20384 29.3718 8.20563 29.3837 8.20409C29.3887 8.20344 29.3922 8.202 29.3922 8.202L31.5238 6.07034C32.3049 5.28929 33.5712 5.28929 34.3523 6.07034L37.9271 9.64522C38.7082 10.4263 38.7082 11.6926 37.9271 12.4736L35.7958 14.6049C35.7958 14.6049 35.7943 14.6085 35.7936 14.6136C35.7921 14.6254 35.7857 14.5861 35.7958 14.6049C36.2561 15.4694 36.6459 16.4396 36.9392 17.3914C36.9455 17.4119 36.957 17.4259 36.9665 17.4332C36.9706 17.4363 36.974 17.4378 36.974 17.4378H40C41.1046 17.4378 42 18.3332 42 19.4378V24.5628C42 25.6673 41.1046 26.5628 40 26.5628H36.9739C36.9739 26.5628 36.9704 26.5642 36.9664 26.5673C36.9568 26.5746 36.9454 26.5886 36.9391 26.6091C36.6458 27.5607 36.2643 28.4733 35.8041 29.3375C35.7941 29.3564 35.7923 29.3743 35.7938 29.3862C35.7945 29.3913 35.7959 29.3947 35.7959 29.3947L37.9274 31.5262C38.7084 32.3073 38.7084 33.5736 37.9274 34.3546L34.3525 37.9295C33.5715 38.7106 32.3051 38.7106 31.5241 37.9295L29.3926 35.798C29.3926 35.798 29.389 35.7965 29.384 35.7958C29.3721 35.7943 29.3542 35.7961 29.3353 35.8061C28.471 36.2663 27.5582 36.6479 26.6065 36.9411C26.586 36.9474 26.572 36.9589 26.5647 36.9684C26.5616 36.9725 26.5602 36.9759 26.5602 36.9759V40C26.5602 41.1046 25.6648 42 24.5602 42H19.4352C18.3306 42 17.4352 41.1046 17.4352 40V36.9756C17.4352 36.9756 17.4338 36.9721 17.4306 36.9681C17.4233 36.9586 17.4093 36.9471 17.3888 36.9408C16.4373 36.6475 15.5246 36.2659 14.6604 35.8057C14.6416 35.7957 14.6236 35.7939 14.6118 35.7954C14.6067 35.7961 14.6033 35.7975 14.6033 35.7975L12.4713 37.9295C11.6902 38.7106 10.4239 38.7106 9.64285 37.9295L6.06797 34.3546C5.28692 33.5736 5.28692 32.3073 6.06797 31.5262L8.2002 29.394C8.2002 29.394 8.20163 29.3905 8.20229 29.3855C8.20383 29.3736 8.20203 29.3557 8.19198 29.3368C7.73197 28.4728 7.35055 27.5604 7.05741 26.6091C7.05109 26.5886 7.03962 26.5746 7.03011 26.5673C7.02603 26.5642 7.02257 26.5628 7.02257 26.5628H4C2.89543 26.5628 2 25.6673 2 24.5628V19.4378C2 18.3332 2.89543 17.4378 4 17.4378H7.02243C7.02243 17.4378 7.02589 17.4363 7.02997 17.4332C7.03948 17.4259 7.05096 17.4119 7.05728 17.3914C7.35047 16.4398 7.73199 15.5272 8.19215 14.663C8.2022 14.6441 8.20399 14.6262 8.20245 14.6143C8.2018 14.6092 8.20036 14.6058 8.20036 14.6058L6.06822 12.4736C5.28718 11.6926 5.28717 10.4263 6.06822 9.64522L9.6431 6.07034C10.4242 5.28929 11.6905 5.28929 12.4715 6.07034L14.6036 8.20238C14.6036 8.20238 14.607 8.20382 14.6121 8.20448C14.624 8.20602 14.6419 8.20422 14.6608 8.19417C15.5248 7.73403 16.4374 7.35253 17.3888 7.05932C17.4093 7.053 17.4233 7.04152 17.4306 7.03201C17.4338 7.02793 17.4352 7.02447 17.4352 7.02447V4ZM24.5602 4L19.4352 4V7.02461C19.4352 7.95343 18.8051 8.71568 17.9779 8.97061C17.1491 9.22601 16.354 9.55838 15.6008 9.95948C14.8348 10.3674 13.8476 10.2748 13.1894 9.61668L11.0573 7.48455L7.48244 11.0594L9.61466 13.1917C10.2728 13.8498 10.3653 14.837 9.95748 15.603C9.55636 16.3563 9.22398 17.1515 8.9686 17.9803C8.7137 18.8076 7.95143 19.4378 7.02256 19.4378L4 19.4378V24.5628H7.0227C7.95154 24.5628 8.7138 25.1929 8.96872 26.0201C9.22405 26.8487 9.55634 27.6437 9.95734 28.3968C10.3652 29.1628 10.2726 30.15 9.61449 30.8081L7.48219 32.9404L11.0571 36.5153L13.1891 34.3832C13.8473 33.7251 14.8346 33.6325 15.6005 34.0405C16.3538 34.4416 17.149 34.774 17.9779 35.0295C18.8051 35.2844 19.4352 36.0466 19.4352 36.9755V40H24.5602V36.9758C24.5602 36.0469 25.1903 35.2846 26.0177 35.0298C26.8466 34.7744 27.6419 34.442 28.3953 34.0408C29.1613 33.6329 30.1485 33.7255 30.8066 34.3836L32.9383 36.5153L36.5132 32.9404L34.3816 30.8088C33.7234 30.1507 33.6309 29.1634 34.0388 28.3975C34.4399 27.6442 34.7723 26.8489 35.0277 26.0201C35.2827 25.1929 36.0449 24.5628 36.9738 24.5628H40V19.4378H36.9739C36.045 19.4378 35.2828 18.8076 35.0279 17.9803C34.7724 17.1513 34.4399 16.3558 34.0387 15.6023C33.6307 14.8364 33.7232 13.8491 34.3814 13.1909L36.5129 11.0594L32.938 7.48455L30.8063 9.6163C30.1482 10.2744 29.161 10.367 28.395 9.95914C27.6417 9.55804 26.8465 9.22568 26.0177 8.97032C25.1903 8.71543 24.5602 7.95315 24.5602 7.02427V4ZM22 15C18.134 15 15 18.134 15 22C15 25.866 18.134 29 22 29C25.866 29 29 25.866 29 22C29 18.134 25.866 15 22 15ZM13 22C13 17.0294 17.0294 13 22 13C26.9706 13 31 17.0294 31 22C31 26.9706 26.9706 31 22 31C17.0294 31 13 26.9706 13 22Z" fill="black"/>
</svg>
