<svg width="44" height="44" viewBox="0 0 44 44" fill="none" xmlns="http://www.w3.org/2000/svg">
<path d="M39 34C39.5523 34 40 34.4477 40 35V35C40 35.5523 39.5523 36 39 36L5 36C4.44771 36 4 35.5523 4 35V35C4 34.4477 4.44771 34 5 34L39 34Z" fill="black"/>
<path fill-rule="evenodd" clip-rule="evenodd" d="M24 14C22.8954 14 22 13.1046 22 12V9C22 7.34315 20.6569 6 19 6H3C2.44772 6 2 6.44772 2 7V39C2 39.5523 2.44772 40 3 40H41C41.5523 40 42 39.5523 42 39V15C42 14.4477 41.5523 14 41 14H24ZM41 12C42.6569 12 44 13.3431 44 15V39C44 40.6569 42.6569 42 41 42H3C1.34315 42 0 40.6569 0 39V7C0 5.34315 1.34315 4 3 4H19C21.7614 4 24 6.23858 24 9V12H41Z" fill="black"/>
<path fill-rule="evenodd" clip-rule="evenodd" d="M12 13C12 12.4477 12.4477 12 13 12H33V14H13C12.4477 14 12 13.5523 12 13Z" fill="black"/>
</svg>
