<svg width="44" height="44" viewBox="0 0 44 44" fill="none" xmlns="http://www.w3.org/2000/svg">
<path fill-rule="evenodd" clip-rule="evenodd" d="M3 6C2.44772 6 2 6.44772 2 7V39C2 39.5523 2.44772 40 3 40H7C7.55228 40 8 40.4477 8 41C8 41.5523 7.55228 42 7 42H3C1.34315 42 0 40.6569 0 39V7C0 5.34315 1.34315 4 3 4H19C21.7614 4 24 6.23858 24 9V12H41C42.6569 12 44 13.3431 44 15V39C44 40.6569 42.6569 42 41 42H37.125C36.5727 42 36.125 41.5523 36.125 41C36.125 40.4477 36.5727 40 37.125 40H41C41.5523 40 42 39.5523 42 39V15C42 14.4477 41.5523 14 41 14H23C22.4477 14 22 13.5523 22 13V9C22 7.34315 20.6569 6 19 6H3Z" fill="black"/>
<path d="M27 12C27.5523 12 28 12.4477 28 13V13C28 13.5523 27.5523 14 27 14L13 14C12.4477 14 12 13.5523 12 13V13C12 12.4477 12.4477 12 13 12L27 12Z" fill="black"/>
<path fill-rule="evenodd" clip-rule="evenodd" d="M21 36C24.866 36 28 32.866 28 29C28 25.134 24.866 22 21 22C17.134 22 14 25.134 14 29C14 32.866 17.134 36 21 36ZM21 38C25.9706 38 30 33.9706 30 29C30 24.0294 25.9706 20 21 20C16.0294 20 12 24.0294 12 29C12 33.9706 16.0294 38 21 38Z" fill="black"/>
<path fill-rule="evenodd" clip-rule="evenodd" d="M25.4187 35.1862C25.8681 34.8652 26.4927 34.9693 26.8137 35.4187L31.8137 42.4187C32.1347 42.8681 32.0306 43.4927 31.5812 43.8137C31.1318 44.1347 30.5072 44.0306 30.1862 43.5812L25.1862 36.5812C24.8652 36.1318 24.9693 35.5072 25.4187 35.1862Z" fill="black"/>
</svg>
