<svg width="44" height="44" viewBox="0 0 44 44" fill="none" xmlns="http://www.w3.org/2000/svg">
<g clip-path="url(#clip0_658_1841)">
<path fill-rule="evenodd" clip-rule="evenodd" d="M24 29V37.9375H20V29H24Z" fill="black"/>
<path fill-rule="evenodd" clip-rule="evenodd" d="M44 40L-1.75626e-09 40L0 38L44 38L44 40Z" fill="black"/>
<path fill-rule="evenodd" clip-rule="evenodd" d="M24 10C22.8954 10 22 9.10457 22 8V4C22 2.89543 21.1046 2 20 2L6 2V28H38V10H24ZM38 8C39.1046 8 40 8.89543 40 10V28C40 29.1046 39.1046 30 38 30H6C4.89543 30 4 29.1046 4 28V2C4 0.89543 4.89543 0 6 0H20C22.2091 0 24 1.79086 24 4V8H38Z" fill="black"/>
<path d="M22 34C24.7614 34 27 36.2386 27 39V39C27 41.7614 24.7614 44 22 44V44C19.2386 44 17 41.7614 17 39V39C17 36.2386 19.2386 34 22 34V34Z" fill="black"/>
<path d="M27 8C27.5523 8 28 8.44772 28 9V9C28 9.55229 27.5523 10 27 10L13 10C12.4477 10 12 9.55228 12 9V9C12 8.44771 12.4477 8 13 8L27 8Z" fill="black"/>
</g>
<defs>
<clipPath id="clip0_658_1841">
<rect width="44" height="44" fill="white"/>
</clipPath>
</defs>
</svg>
