<svg width="44" height="44" viewBox="0 0 44 44" fill="none" xmlns="http://www.w3.org/2000/svg">
<g clip-path="url(#clip0_658_1775)">
<path fill-rule="evenodd" clip-rule="evenodd" d="M2 2V30H14V2H2ZM1.375 0C0.615609 0 0 0.615609 0 1.375V30.625C0 31.3844 0.615609 32 1.375 32H14.625C15.3844 32 16 31.3844 16 30.625V1.375C16 0.615609 15.3844 0 14.625 0H1.375Z" fill="black"/>
<path fill-rule="evenodd" clip-rule="evenodd" d="M30 2V30H42V2H30ZM29.375 0C28.6156 0 28 0.615609 28 1.375V30.625C28 31.3844 28.6156 32 29.375 32H42.625C43.3844 32 44 31.3844 44 30.625V1.375C44 0.615609 43.3844 0 42.625 0H29.375Z" fill="black"/>
<path fill-rule="evenodd" clip-rule="evenodd" d="M16 14V42H28V14H16ZM15.375 12C14.6156 12 14 12.6156 14 13.375V42.625C14 43.3844 14.6156 44 15.375 44H28.625C29.3844 44 30 43.3844 30 42.625V13.375C30 12.6156 29.3844 12 28.625 12H15.375Z" fill="black"/>
<path d="M0 6H10V8H0V6Z" fill="black"/>
<path d="M28 6H38V8H28V6Z" fill="black"/>
<path d="M14 18H24V20H14V18Z" fill="black"/>
<path d="M0 12H10V14H0V12Z" fill="black"/>
<path d="M28 12H38V14H28V12Z" fill="black"/>
<path d="M14 24H24V26H14V24Z" fill="black"/>
<path d="M10 26H12V28H10V26Z" fill="black"/>
<path d="M38 26H40V28H38V26Z" fill="black"/>
<path d="M24 38H26V40H24V38Z" fill="black"/>
</g>
<defs>
<clipPath id="clip0_658_1775">
<rect width="44" height="44" fill="white"/>
</clipPath>
</defs>
</svg>
