<svg width="44" height="44" viewBox="0 0 44 44" fill="none" xmlns="http://www.w3.org/2000/svg">
<path fill-rule="evenodd" clip-rule="evenodd" d="M12 10.5C12 6.91015 14.9101 4 18.5 4H38C38.5523 4 39 4.44772 39 5C39 5.55228 38.5523 6 38 6H37.6C35.6118 6 34 7.61177 34 9.6V32H32V9.6C32 8.22919 32.4925 6.97341 33.3103 6H18.5C16.0147 6 14 8.01472 14 10.5V30.6H12V10.5Z" fill="black"/>
<path fill-rule="evenodd" clip-rule="evenodd" d="M32 10C32 6.68629 34.6863 4 38 4C41.3137 4 44 6.68629 44 10V14H32V10ZM38 6C35.7909 6 34 7.79086 34 10V12H42V10C42 7.79086 40.2091 6 38 6Z" fill="black"/>
<path fill-rule="evenodd" clip-rule="evenodd" d="M34 35C34 38.866 30.866 42 27 42C23.134 42 20 38.866 20 35V32H22V35C22 37.7614 24.2386 40 27 40C29.7614 40 32 37.7614 32 35V32H34V35Z" fill="black"/>
<path fill-rule="evenodd" clip-rule="evenodd" d="M27 40C24.2386 40 22 37.7614 22 35V30H0V35.5C0 39.0899 2.91015 42 6.5 42H27V40ZM6.5 40H22.101C20.8045 38.7295 20 36.9587 20 35V32H2V35.5C2 37.9853 4.01472 40 6.5 40Z" fill="black"/>
</svg>
