<svg width="44" height="44" viewBox="0 0 44 44" fill="none" xmlns="http://www.w3.org/2000/svg">
<g clip-path="url(#clip0_658_1879)">
<path fill-rule="evenodd" clip-rule="evenodd" d="M9.03289 1.09835C9.73615 0.39509 10.69 0 11.6845 0H40.25C42.3211 0 44 1.67893 44 3.75V40.2C44 40.7523 43.5523 41.2 43 41.2C42.4477 41.2 42 40.7523 42 40.2V3.75C42 2.7835 41.2165 2 40.25 2H11.6845C11.2204 2 10.7753 2.18437 10.4471 2.51256L2 10.9597V40.25C2 41.2165 2.7835 42 3.75 42H12.2C12.7523 42 13.2 42.4477 13.2 43C13.2 43.5523 12.7523 44 12.2 44H3.75C1.67893 44 0 42.3211 0 40.25V10.5455C0 10.2802 0.105357 10.0259 0.292893 9.83835L9.03289 1.09835Z" fill="black"/>
<path fill-rule="evenodd" clip-rule="evenodd" d="M34 13.25V2H16V13.25C16 13.6642 16.3358 14 16.75 14H33.25C33.6642 14 34 13.6642 34 13.25ZM14 0V13.25C14 14.7688 15.2312 16 16.75 16H33.25C34.7688 16 36 14.7688 36 13.25V0H14Z" fill="black"/>
<path d="M22 11C22 11.5523 21.5523 12 21 12L19 12C18.4477 12 18 11.5523 18 11L18 5C18 4.44772 18.4477 4 19 4L21 4C21.5523 4 22 4.44772 22 5L22 11Z" fill="black"/>
<path fill-rule="evenodd" clip-rule="evenodd" d="M25 36C28.866 36 32 32.866 32 29C32 25.134 28.866 22 25 22C21.134 22 18 25.134 18 29C18 32.866 21.134 36 25 36ZM25 38C29.9706 38 34 33.9706 34 29C34 24.0294 29.9706 20 25 20C20.0294 20 16 24.0294 16 29C16 33.9706 20.0294 38 25 38Z" fill="black"/>
<path fill-rule="evenodd" clip-rule="evenodd" d="M29.4187 35.1863C29.8681 34.8653 30.4927 34.9694 30.8137 35.4188L35.8137 42.4188C36.1347 42.8682 36.0306 43.4928 35.5812 43.8138C35.1318 44.1348 34.5072 44.0307 34.1862 43.5813L29.1862 36.5813C28.8652 36.1319 28.9693 35.5073 29.4187 35.1863Z" fill="black"/>
</g>
<defs>
<clipPath id="clip0_658_1879">
<rect width="44" height="44" fill="white"/>
</clipPath>
</defs>
</svg>
