<svg width="44" height="44" viewBox="0 0 44 44" fill="none" xmlns="http://www.w3.org/2000/svg">
<path fill-rule="evenodd" clip-rule="evenodd" d="M19.0769 34.1538C27.4037 34.1538 34.1538 27.4037 34.1538 19.0769C34.1538 10.7502 27.4037 4 19.0769 4C10.7502 4 4 10.7502 4 19.0769C4 27.4037 10.7502 34.1538 19.0769 34.1538ZM19.0769 36.1538C28.5082 36.1538 36.1538 28.5082 36.1538 19.0769C36.1538 9.6456 28.5082 2 19.0769 2C9.6456 2 2 9.6456 2 19.0769C2 28.5082 9.6456 36.1538 19.0769 36.1538Z" fill="black"/>
<path fill-rule="evenodd" clip-rule="evenodd" d="M18.25 9.25C13.2794 9.25 9.25 13.2794 9.25 18.25C9.25 18.8023 8.80228 19.25 8.25 19.25C7.69772 19.25 7.25 18.8023 7.25 18.25C7.25 12.1749 12.1749 7.25 18.25 7.25C18.8023 7.25 19.25 7.69772 19.25 8.25C19.25 8.80228 18.8023 9.25 18.25 9.25Z" fill="black"/>
<path fill-rule="evenodd" clip-rule="evenodd" d="M28.7886 31.617L31.617 28.7886L41.9667 39.1382C42.7477 39.9193 42.7477 41.1856 41.9667 41.9667C41.1856 42.7477 39.9193 42.7477 39.1382 41.9667L28.7886 31.617Z" fill="black"/>
</svg>
