<svg width="22" height="22" viewBox="0 0 22 22" fill="none" xmlns="http://www.w3.org/2000/svg">
<path fill-rule="evenodd" clip-rule="evenodd" d="M8.71759 2C8.71759 1.44772 9.16531 1 9.71759 1H12.2801C12.8324 1 13.2801 1.44772 13.2801 2V3.51207C13.2801 3.51207 13.2808 3.5138 13.2824 3.51584C13.286 3.52059 13.293 3.52633 13.3033 3.52949C13.779 3.67608 14.2354 3.86682 14.6675 4.09689C14.6769 4.10192 14.6859 4.10282 14.6918 4.10205C14.6944 4.10172 14.6961 4.101 14.6961 4.101L15.7619 3.03517C16.1524 2.64465 16.7856 2.64465 17.1761 3.03517L18.9636 4.82261C19.3541 5.21314 19.3541 5.8463 18.9636 6.23682L17.8979 7.30247C17.8979 7.30247 17.8971 7.30426 17.8968 7.30679C17.896 7.31272 17.8929 7.29304 17.8979 7.30247C18.1281 7.73468 18.323 8.21979 18.4696 8.6957C18.4728 8.70596 18.4785 8.71295 18.4832 8.7166C18.4853 8.71817 18.487 8.71888 18.487 8.71888H20C20.5523 8.71888 21 9.16659 21 9.71888V12.2814C21 12.8337 20.5523 13.2814 20 13.2814H18.4869C18.4869 13.2814 18.4852 13.2821 18.4832 13.2837C18.4784 13.2873 18.4727 13.2943 18.4695 13.3046C18.3229 13.7803 18.1321 14.2367 17.9021 14.6688C17.897 14.6782 17.8961 14.6872 17.8969 14.6931C17.8972 14.6956 17.8979 14.6973 17.8979 14.6973L18.9637 15.7631C19.3542 16.1536 19.3542 16.7868 18.9637 17.1773L17.1763 18.9648C16.7857 19.3553 16.1526 19.3553 15.762 18.9648L14.6963 17.899C14.6963 17.899 14.6945 17.8982 14.692 17.8979C14.6861 17.8971 14.6771 17.898 14.6677 17.9031C14.2355 18.1332 13.7791 18.3239 13.3033 18.4705C13.293 18.4737 13.286 18.4794 13.2824 18.4842C13.2808 18.4862 13.2801 18.488 13.2801 18.488V20C13.2801 20.5523 12.8324 21 12.2801 21H9.71759C9.16531 21 8.71759 20.5523 8.71759 20V18.4878C8.71759 18.4878 8.71688 18.4861 8.71531 18.484C8.71166 18.4793 8.70467 18.4735 8.69442 18.4704C8.21864 18.3238 7.76231 18.133 7.33022 17.9029C7.32079 17.8978 7.31182 17.8969 7.30589 17.8977C7.30335 17.898 7.30163 17.8988 7.30163 17.8988L6.23564 18.9648C5.84511 19.3553 5.21195 19.3553 4.82143 18.9648L3.03399 17.1773C2.64346 16.7868 2.64346 16.1536 3.03399 15.7631L4.1001 14.697C4.1001 14.697 4.10082 14.6953 4.10115 14.6927C4.10191 14.6868 4.10102 14.6778 4.09599 14.6684C3.86598 14.2364 3.67528 13.7802 3.52871 13.3046C3.52555 13.2943 3.51981 13.2873 3.51505 13.2837C3.51302 13.2821 3.51129 13.2814 3.51129 13.2814H2C1.44771 13.2814 1 12.8337 1 12.2814V9.71888C1 9.16659 1.44772 8.71888 2 8.71888H3.51122C3.51122 8.71888 3.51295 8.71817 3.51499 8.7166C3.51974 8.71295 3.52548 8.70596 3.52864 8.69571C3.67524 8.21992 3.86599 7.76358 4.09607 7.33148C4.1011 7.32205 4.102 7.31308 4.10123 7.30715C4.1009 7.30461 4.10018 7.30289 4.10018 7.30289L3.03411 6.23682C2.64359 5.8463 2.64359 5.21314 3.03411 4.82261L4.82155 3.03517C5.21208 2.64465 5.84524 2.64465 6.23576 3.03517L7.30179 4.10119C7.30179 4.10119 7.30351 4.10191 7.30605 4.10224C7.31198 4.10301 7.32094 4.10211 7.33038 4.09708C7.76242 3.86702 8.2187 3.67626 8.69442 3.52966C8.70467 3.5265 8.71166 3.52076 8.71531 3.51601C8.71688 3.51397 8.71759 3.51224 8.71759 3.51224V2ZM12.2801 2L9.71759 2V3.5123C9.71759 3.97671 9.40255 4.35784 8.98893 4.48531C8.57457 4.613 8.17701 4.77919 7.8004 4.97974C7.41742 5.18368 6.9238 5.13742 6.59472 4.80834L5.52866 3.74228L3.74122 5.52972L4.80733 6.59583C5.1364 6.9249 5.18267 7.4185 4.97874 7.80148C4.77818 8.17814 4.61199 8.57575 4.4843 8.99016C4.35685 9.40381 3.97571 9.71888 3.51128 9.71888L2 9.71888V12.2814H3.51135C3.97577 12.2814 4.3569 12.5964 4.48436 13.0101C4.61203 13.4244 4.77817 13.8219 4.97867 14.1984C5.18258 14.5814 5.13631 15.075 4.80725 15.4041L3.74109 16.4702L5.52853 18.2576L6.59457 17.1916C6.92365 16.8625 7.41728 16.8163 7.80027 17.0202C8.17692 17.2208 8.57452 17.387 8.98893 17.5147C9.40255 17.6422 9.71759 18.0233 9.71759 18.4877V20H12.2801V18.4879C12.2801 18.0235 12.5952 17.6423 13.0088 17.5149C13.4233 17.3872 13.821 17.221 14.1977 17.0204C14.5806 16.8165 15.0742 16.8627 15.4033 17.1918L16.4691 18.2576L18.2566 16.4702L17.1908 15.4044C16.8617 15.0753 16.8155 14.5817 17.0194 14.1987C17.22 13.8221 17.3862 13.4245 17.5139 13.0101C17.6413 12.5964 18.0225 12.2814 18.4869 12.2814H20V9.71888H18.4869C18.0225 9.71888 17.6414 9.40381 17.5139 8.99016C17.3862 8.57564 17.22 8.17792 17.0193 7.80117C16.8154 7.41819 16.8616 6.92456 17.1907 6.59547L18.2565 5.52972L16.469 3.74228L15.4032 4.80815C15.0741 5.13721 14.5805 5.18348 14.1975 4.97957C13.8209 4.77902 13.4232 4.61284 13.0088 4.48516C12.5952 4.35771 12.2801 3.97658 12.2801 3.51213V2ZM11 7.5C9.067 7.5 7.5 9.067 7.5 11C7.5 12.933 9.067 14.5 11 14.5C12.933 14.5 14.5 12.933 14.5 11C14.5 9.067 12.933 7.5 11 7.5ZM6.5 11C6.5 8.51472 8.51472 6.5 11 6.5C13.4853 6.5 15.5 8.51472 15.5 11C15.5 13.4853 13.4853 15.5 11 15.5C8.51472 15.5 6.5 13.4853 6.5 11Z" fill="#8A8E8F"/>
<path fill-rule="evenodd" clip-rule="evenodd" d="M9.71759 2L12.2801 2V3.51213C12.2801 3.97658 12.5952 4.35771 13.0088 4.48516C13.4232 4.61284 13.8209 4.77902 14.1975 4.97957C14.5805 5.18348 15.0741 5.13721 15.4032 4.80815L16.469 3.74228L18.2565 5.52972L17.1907 6.59547C16.8616 6.92456 16.8154 7.41819 17.0193 7.80117C17.22 8.17792 17.3862 8.57564 17.5139 8.99016C17.6414 9.40381 18.0225 9.71888 18.4869 9.71888H20V12.2814H18.4869C18.0225 12.2814 17.6413 12.5964 17.5139 13.0101C17.3862 13.4245 17.22 13.8221 17.0194 14.1987C16.8155 14.5817 16.8617 15.0753 17.1908 15.4044L18.2566 16.4702L16.4691 18.2576L15.4033 17.1918C15.0742 16.8627 14.5806 16.8165 14.1977 17.0204C13.821 17.221 13.4233 17.3872 13.0088 17.5149C12.5952 17.6423 12.2801 18.0235 12.2801 18.4879V20H9.71759V18.4877C9.71759 18.0233 9.40255 17.6422 8.98893 17.5147C8.57452 17.387 8.17692 17.2208 7.80027 17.0202C7.41728 16.8163 6.92365 16.8625 6.59457 17.1916L5.52853 18.2576L3.74109 16.4702L4.80725 15.4041C5.13631 15.075 5.18258 14.5814 4.97867 14.1984C4.77817 13.8219 4.61203 13.4244 4.48436 13.0101C4.3569 12.5964 3.97577 12.2814 3.51135 12.2814H2V9.71888L3.51128 9.71888C3.97571 9.71888 4.35685 9.40381 4.4843 8.99016C4.61199 8.57575 4.77818 8.17814 4.97874 7.80148C5.18267 7.4185 5.1364 6.9249 4.80733 6.59583L3.74122 5.52972L5.52866 3.74228L6.59472 4.80834C6.9238 5.13742 7.41742 5.18368 7.8004 4.97974C8.17701 4.77919 8.57457 4.613 8.98893 4.48531C9.40255 4.35784 9.71759 3.97671 9.71759 3.5123V2ZM6.5 11C6.5 8.51472 8.51472 6.5 11 6.5C13.4853 6.5 15.5 8.51472 15.5 11C15.5 13.4853 13.4853 15.5 11 15.5C8.51472 15.5 6.5 13.4853 6.5 11Z" fill="#CDCDCE"/>
</svg>
