<svg width="44" height="44" viewBox="0 0 44 44" fill="none" xmlns="http://www.w3.org/2000/svg">
<g opacity="0.8">
<path d="M2 7.00004C2 5.34318 3.34314 4.00004 4.99999 4.00003L19 4C21.7614 3.99999 24 6.23857 24 9V12V23C24 23.5522 23.5523 24 23 24L3 24C2.44772 24 2 23.5523 2 23V7.00004Z" fill="#E6CE8A"/>
<path fill-rule="evenodd" clip-rule="evenodd" d="M22 22V9C22 7.34314 20.6569 6 19 6L5 6.00004C4.44771 6.00004 4 6.44775 4 7.00004V22L22 22ZM4.99999 4.00003C3.34314 4.00004 2 5.34318 2 7.00004V23C2 23.5523 2.44772 24 3 24L23 24C23.5523 24 24 23.5522 24 23V9C24 6.23857 21.7614 3.99999 19 4L4.99999 4.00003Z" fill="#E5CE8A"/>
<path d="M2 13C2 12.4477 2.44772 12 3 12H38C40.2091 12 42 13.7909 42 16V39C42 40.6569 40.6569 42 39 42H5C3.34315 42 2 40.6569 2 39V13Z" fill="#FFE599"/>
<path fill-rule="evenodd" clip-rule="evenodd" d="M40 39V16C40 14.8954 39.1046 14 38 14H4V39C4 39.5523 4.44772 40 5 40H39C39.5523 40 40 39.5523 40 39ZM3 12C2.44772 12 2 12.4477 2 13V39C2 40.6569 3.34315 42 5 42H39C40.6569 42 42 40.6569 42 39V16C42 13.7909 40.2091 12 38 12H3Z" fill="#FFE599"/>
<path d="M14 36H29V41H14V36Z" fill="white"/>
<path fill-rule="evenodd" clip-rule="evenodd" d="M12 38V21.5714C12 19.599 13.599 18 15.5714 18H30C31.1046 18 32 18.8954 32 20V34C32 35.1046 31.1046 36 30 36H16C14.6883 36 14 37.0557 14 38C14 39.2994 15.1088 40 16 40H31C31.5523 40 32 40.4477 32 41C32 41.5523 31.5523 42 31 42H16C14.3263 42 12 40.7006 12 38Z" fill="#F3921A"/>
</g>
</svg>
