<svg width="44" height="44" viewBox="0 0 44 44" fill="none" xmlns="http://www.w3.org/2000/svg">
<path d="M44 39V15C44 13.3431 42.6569 12 41 12H24V9C24 6.23858 21.7614 4 19 4H3C1.34315 4 0 5.34315 0 7V39C0 40.6569 1.34315 42 3 42H41C42.6569 42 44 40.6569 44 39Z" fill="#E5CE8A"/>
<path d="M44 39V15C44 13.3431 42.6569 12 41 12H0V39C0 40.6569 1.34315 42 3 42H41C42.6569 42 44 40.6569 44 39Z" fill="#FFE599"/>
<path d="M30 29C30 33.9706 25.9706 38 21 38C16.0294 38 12 33.9706 12 29C12 24.0294 16.0294 20 21 20C25.9706 20 30 24.0294 30 29Z" fill="#E0F9FF"/>
<path fill-rule="evenodd" clip-rule="evenodd" d="M21 36C24.866 36 28 32.866 28 29C28 25.134 24.866 22 21 22C17.134 22 14 25.134 14 29C14 32.866 17.134 36 21 36ZM21 38C25.9706 38 30 33.9706 30 29C30 24.0294 25.9706 20 21 20C16.0294 20 12 24.0294 12 29C12 33.9706 16.0294 38 21 38Z" fill="black"/>
<path fill-rule="evenodd" clip-rule="evenodd" d="M25.4187 35.1862C25.8681 34.8652 26.4927 34.9693 26.8137 35.4187L31.8137 42.4187C32.1347 42.8681 32.0306 43.4927 31.5812 43.8137C31.1318 44.1347 30.5072 44.0306 30.1862 43.5812L25.1862 36.5812C24.8652 36.1318 24.9693 35.5072 25.4187 35.1862Z" fill="black"/>
</svg>
