<svg width="44" height="44" viewBox="0 0 44 44" fill="none" xmlns="http://www.w3.org/2000/svg">
<path fill-rule="evenodd" clip-rule="evenodd" d="M21.7071 10.2929C22.0976 10.6834 22.0976 11.3166 21.7071 11.7071L10.4142 23L21.7071 34.2929C22.0976 34.6834 22.0976 35.3166 21.7071 35.7071C21.3166 36.0977 20.6834 36.0977 20.2929 35.7071L8.29289 23.7071C8.10536 23.5196 8 23.2652 8 23C8 22.7348 8.10536 22.4805 8.29289 22.2929L20.2929 10.2929C20.6834 9.9024 21.3166 9.9024 21.7071 10.2929Z" fill="black"/>
<path fill-rule="evenodd" clip-rule="evenodd" d="M8.625 23C8.625 23.5523 9.07272 24 9.625 24L34.375 24C34.9273 24 35.375 23.5523 35.375 23C35.375 22.4477 34.9273 22 34.375 22L9.625 22C9.07272 22 8.625 22.4477 8.625 23Z" fill="black"/>
</svg>
