<svg width="44" height="44" viewBox="0 0 44 44" fill="none" xmlns="http://www.w3.org/2000/svg">
<path fill-rule="evenodd" clip-rule="evenodd" d="M25.2847 6.73998C24.4375 6.31072 22.8723 5.97753 21.0135 6.00118C19.0112 6.0297 16.8888 6.49044 15.1446 7.98557C13.6281 9.2855 12.8417 10.7395 12.4327 11.8637C12.2279 12.4266 12.1186 12.9052 12.0608 13.2361C12.032 13.4013 12.0162 13.5288 12.0077 13.6106C12.0035 13.6515 12.0012 13.6809 12 13.6977L11.999 13.7134L11.999 13.7123L11.9991 13.711L11.9991 13.7103C11.9991 13.7114 11.999 13.7126 11.9989 13.7137C11.999 13.7136 11.999 13.7135 11.999 13.7134L11.9989 13.7139C11.9989 13.7145 11.9989 13.7144 11.9989 13.7138C11.9735 14.2635 11.5085 14.6897 10.9581 14.6666C10.4063 14.6435 9.97774 14.1774 10.0009 13.6256L11 13.6675C10.0009 13.6256 10.0009 13.6251 10.0009 13.6247L10.001 13.6237L10.0011 13.6214L10.0013 13.6159L10.0021 13.6009C10.0028 13.5892 10.0037 13.5741 10.005 13.5556C10.0077 13.5187 10.0118 13.4684 10.0182 13.406C10.0311 13.2811 10.0531 13.107 10.0906 12.8922C10.1655 12.4633 10.3026 11.869 10.5532 11.1799C11.0552 9.8001 12.0156 8.03353 13.8429 6.4671L13.843 6.46708C16.0693 4.55871 18.7155 4.0336 20.9858 4.00137L20.9872 4.00135C23.0298 3.97527 24.9514 4.32867 26.1897 4.95647L26.1914 4.95732V4.95732C28.0453 5.90159 32 8.36539 32 13.6675C32 16.3303 31.3099 18.4349 30.1275 20.2064C28.9599 21.9557 27.3451 23.3301 25.5817 24.5912C23.9319 25.771 23.0706 26.7663 22.6008 27.717C22.1325 28.6645 22 29.6721 22 31C22 31.5523 21.5523 32 21 32C20.4477 32 20 31.5523 20 31C20 29.5504 20.1399 28.1824 20.8078 26.8309C21.4742 25.4825 22.6129 24.2555 24.4183 22.9644C26.1101 21.7545 27.4953 20.5474 28.464 19.0961C29.4178 17.6671 30 15.952 30 13.6675C30 9.56756 26.9955 7.61153 25.2847 6.73998Z" fill="black"/>
<path d="M20 37C20 36.4477 20.4477 36 21 36V36C21.5523 36 22 36.4477 22 37V39C22 39.5523 21.5523 40 21 40V40C20.4477 40 20 39.5523 20 39V37Z" fill="black"/>
</svg>
