<svg width="44" height="44" viewBox="0 0 44 44" fill="none" xmlns="http://www.w3.org/2000/svg">
<g clip-path="url(#clip0_658_1611)">
<path d="M32 9C32 6.23858 34.2386 4 37 4H39C41.7614 4 44 6.23858 44 9V14H32V9Z" fill="#E5CE8A"/>
<path fill-rule="evenodd" clip-rule="evenodd" d="M18 4C14.6863 4 12 6.68629 12 10V42H27C30.866 42 34 38.866 34 35V14V8.66667C34 6.31569 35.7385 4.37075 38 4.04726V4H18Z" fill="#FFEFC0"/>
<path fill-rule="evenodd" clip-rule="evenodd" d="M7.99996 30H20L20 35.2142C20 38.9619 22.2893 42 26 42H9.02236C9.01493 42 9.0075 42 9.00007 42H5.99976C2.68605 42 -0.000244141 39.3137 -0.000244141 36V30L7.99996 30V30Z" fill="#E5CE8A"/>
<path d="M32 23C32 23.5523 31.5523 24 31 24L15 24C14.4477 24 14 23.5523 14 23V23C14 22.4477 14.4477 22 15 22L31 22C31.5523 22 32 22.4477 32 23V23Z" fill="#E5CE8A"/>
<path d="M32 17C32 17.5523 31.5523 18 31 18L15 18C14.4477 18 14 17.5523 14 17V17C14 16.4477 14.4477 16 15 16L31 16C31.5523 16 32 16.4477 32 17V17Z" fill="#E5CE8A"/>
<path d="M32 11C32 11.5523 31.5523 12 31 12L15 12C14.4477 12 14 11.5523 14 11V11C14 10.4477 14.4477 10 15 10L31 10C31.5523 10 32 10.4477 32 11V11Z" fill="#E5CE8A"/>
</g>
<defs>
<clipPath id="clip0_658_1611">
<rect width="44" height="44" fill="white"/>
</clipPath>
</defs>
</svg>
