<svg width="44" height="44" viewBox="0 0 44 44" fill="none" xmlns="http://www.w3.org/2000/svg">
<path fill-rule="evenodd" clip-rule="evenodd" d="M22.293 21.7071C21.9025 21.3166 21.9025 20.6834 22.293 20.2929L29.5859 13L22.293 5.70711C21.9025 5.31658 21.9025 4.68342 22.293 4.29289C22.6835 3.90237 23.3167 3.90237 23.7072 4.29289L32.4143 13L23.7072 21.7071C23.3167 22.0976 22.6835 22.0976 22.293 21.7071Z" fill="black"/>
<path fill-rule="evenodd" clip-rule="evenodd" d="M8 26C8 18.268 14.268 12 22 12H29.9444C30.4967 12 30.9444 12.4477 30.9444 13C30.9444 13.5523 30.4967 14 29.9444 14H22C15.3726 14 10 19.3726 10 26C10 32.6274 15.3726 38 22 38C28.6274 38 34 32.6274 34 26C34 25.4477 34.4477 25 35 25C35.5523 25 36 25.4477 36 26C36 33.732 29.732 40 22 40C14.268 40 8 33.732 8 26Z" fill="black"/>
</svg>
