<svg width="32" height="32" viewBox="0 0 32 32" fill="none" xmlns="http://www.w3.org/2000/svg">
<path d="M0 14C0 12.8954 0.895431 12 2 12H30C31.1046 12 32 12.8954 32 14V30C32 31.1046 31.1046 32 30 32H2C0.895431 32 0 31.1046 0 30V14Z" fill="#EFAB46"/>
<path fill-rule="evenodd" clip-rule="evenodd" d="M4 11C4 4.92487 8.92487 0 15 0H17C23.0751 0 28 4.92487 28 11V17C28 23.0751 23.0751 28 17 28H15C8.92487 28 4 23.0751 4 17V11ZM15 4C11.134 4 8 7.13401 8 11V17C8 20.866 11.134 24 15 24H17C20.866 24 24 20.866 24 17V11C24 7.13401 20.866 4 17 4H15Z" fill="#EFAB46"/>
<path d="M12 20C12 17.7909 13.7909 16 16 16V16C18.2091 16 20 17.7909 20 20V20C20 22.2091 18.2091 24 16 24V24C13.7909 24 12 22.2091 12 20V20Z" fill="#BC8533"/>
<path d="M14 24C14 22.8954 14.8954 22 16 22V22C17.1046 22 18 22.8954 18 24V28C18 29.1046 17.1046 30 16 30V30C14.8954 30 14 29.1046 14 28V24Z" fill="#BC8533"/>
</svg>
