<svg width="32" height="32" viewBox="0 0 32 32" fill="none" xmlns="http://www.w3.org/2000/svg">
<g clip-path="url(#clip0_613_1662)">
<path d="M0 3C0 2.44771 0.447715 2 1 2H14C16.2091 2 18 3.79086 18 6V8H30C31.1046 8 32 8.89543 32 10V29C32 29.5523 31.5523 30 31 30H1C0.447715 30 0 29.5523 0 29V3Z" fill="#8A8E8F"/>
<path fill-rule="evenodd" clip-rule="evenodd" d="M18 10C16.8954 10 16 9.10457 16 8V6C16 4.89543 15.1046 4 14 4H2V28H30V10H18ZM30 8C31.1046 8 32 8.89543 32 10V29C32 29.5523 31.5523 30 31 30H1C0.447715 30 0 29.5523 0 29V3C0 2.44771 0.447715 2 1 2H14C16.2091 2 18 3.79086 18 6V8H30Z" fill="#8A8E8F"/>
<path d="M0 9C0 8.44772 0.447715 8 1 8H30C31.1046 8 32 8.89543 32 10V29C32 29.5523 31.5523 30 31 30H1C0.447715 30 0 29.5523 0 29V9Z" fill="#CDCDCE"/>
<path fill-rule="evenodd" clip-rule="evenodd" d="M30 28V10H2V28H30ZM1 8C0.447715 8 0 8.44772 0 9V29C0 29.5523 0.447715 30 1 30H31C31.5523 30 32 29.5523 32 29V10C32 8.89543 31.1046 8 30 8H1Z" fill="#CDCDCE"/>
<path d="M27 24C27.5523 24 28 24.4477 28 25V25C28 25.5523 27.5523 26 27 26L5 26C4.44772 26 4 25.5523 4 25V25C4 24.4477 4.44772 24 5 24L27 24Z" fill="#8A8E8F"/>
</g>
<defs>
<clipPath id="clip0_613_1662">
<rect width="32" height="32" fill="white"/>
</clipPath>
</defs>
</svg>
