<svg width="44" height="44" viewBox="0 0 44 44" fill="none" xmlns="http://www.w3.org/2000/svg">
<g clip-path="url(#clip0_658_1942)">
<path d="M28 44L16 44L16 34L28 34L28 44Z" fill="#8A8E8F"/>
<path d="M44 31.875C44 34.1532 42.1532 36 39.875 36L4.125 36C1.84682 36 -3.64748e-06 34.1532 -3.4412e-06 31.875L-1.10967e-06 6.125C-9.03389e-07 3.84683 1.84682 2 4.125 2L39.875 2C42.1532 2 44 3.84683 44 6.125L44 31.875Z" fill="#333333"/>
<path d="M42 28C42 29.1046 41.1046 30 40 30L4 30C2.89543 30 2 29.1046 2 28L2 6C2 4.89543 2.89543 4 4 4L40 4C41.1046 4 42 4.89543 42 6L42 28Z" fill="#CDCDCE"/>
<path d="M33 42C33.5523 42 34 42.4477 34 43V43C34 43.5523 33.5523 44 33 44L11 44C10.4477 44 10 43.5523 10 43V43C10 42.4477 10.4477 42 11 42L33 42Z" fill="#333333"/>
</g>
<defs>
<clipPath id="clip0_658_1942">
<rect width="44" height="44" fill="white"/>
</clipPath>
</defs>
</svg>
