<svg width="44" height="44" viewBox="0 0 44 44" fill="none" xmlns="http://www.w3.org/2000/svg">
<path d="M2 7.00005C2 5.3432 3.34314 4.00005 4.99999 4.00005L19 4.00001C21.7614 4.00001 24 6.23858 24 9.00001V12.0001V22.9999C24 23.5522 23.5523 23.9999 23 23.9999L3 24C2.44772 24 2 23.5523 2 23V7.00005Z" fill="#8A8E8F"/>
<path d="M2 13C2 12.4477 2.44772 12 3 12H38C40.2091 12 42 13.7909 42 16V39C42 40.6569 40.6569 42 39 42H5C3.34315 42 2 40.6569 2 39V13Z" fill="#CDCDCE"/>
<rect x="14" y="36" width="15" height="5" fill="white"/>
<path fill-rule="evenodd" clip-rule="evenodd" d="M12 38V21.5714C12 19.599 13.599 18 15.5714 18H30C31.1046 18 32 18.8954 32 20V34C32 35.1046 31.1046 36 30 36H16C14.6883 36 14 37.0557 14 38C14 39.2994 15.1088 40 16 40H31C31.5523 40 32 40.4477 32 41C32 41.5523 31.5523 42 31 42H16C14.3263 42 12 40.7006 12 38Z" fill="#333333"/>
</svg>
