<svg width="44" height="44" viewBox="0 0 44 44" fill="none" xmlns="http://www.w3.org/2000/svg">
<path d="M44 39V15C44 13.3431 42.6569 12 41 12H24V9C24 6.23858 21.7614 4 19 4H3C1.34315 4 0 5.34315 0 7V39C0 40.6569 1.34315 42 3 42H41C42.6569 42 44 40.6569 44 39Z" fill="#8A8E8F"/>
<path d="M44 39V15C44 13.3431 42.6569 12 41 12H0V39C0 40.6569 1.34315 42 3 42H41C42.6569 42 44 40.6569 44 39Z" fill="#CDCDCE"/>
<path d="M39 34C39.5523 34 40 34.4477 40 35V35C40 35.5523 39.5523 36 39 36L5 36C4.44771 36 4 35.5523 4 35V35C4 34.4477 4.44771 34 5 34L39 34Z" fill="#8A8E8F"/>
</svg>
