<svg width="44" height="44" viewBox="0 0 44 44" fill="none" xmlns="http://www.w3.org/2000/svg">
<g clip-path="url(#clip0_658_1848)">
<path d="M32 9C32 6.23858 34.2386 4 37 4H39C41.7614 4 44 6.23858 44 9V14H32V9Z" fill="#8A8E8F"/>
<path fill-rule="evenodd" clip-rule="evenodd" d="M18 4C14.6863 4 12 6.68629 12 10V42H27C30.866 42 34 38.866 34 35V14V8.66667C34 6.31569 35.7385 4.37075 38 4.04726V4H18Z" fill="#CDCDCE"/>
<path fill-rule="evenodd" clip-rule="evenodd" d="M7.99996 30H20L20 35.2142C20 38.9619 22.2893 42 26 42H9.02236C9.01493 42 9.0075 42 9.00007 42H5.99976C2.68605 42 -0.000244141 39.3137 -0.000244141 36V30L7.99996 30V30Z" fill="#8A8E8F"/>
</g>
<defs>
<clipPath id="clip0_658_1848">
<rect width="44" height="44" fill="white"/>
</clipPath>
</defs>
</svg>
