<svg width="44" height="44" viewBox="0 0 44 44" fill="none" xmlns="http://www.w3.org/2000/svg">
<g clip-path="url(#clip0_658_1887)">
<path d="M44 40V4C44 1.79086 42.2091 0 40 0H11.6569C10.596 0 9.57858 0.421426 8.82843 1.17157L0.585786 9.41421C0.210714 9.78929 0 10.298 0 10.8284V40C0 42.2091 1.79086 44 4 44H40C42.2091 44 44 42.2091 44 40Z" fill="#CDCDCE"/>
<path d="M14 0H36V13.25C36 14.7688 34.7688 16 33.25 16H16.75C15.2312 16 14 14.7688 14 13.25V0Z" fill="#333333"/>
<path d="M22 13C22 13.5523 21.5523 14 21 14L17 14C16.4477 14 16 13.5523 16 13L16 3C16 2.44772 16.4477 2 17 2L21 2C21.5523 2 22 2.44772 22 3L22 13Z" fill="#CDCDCE"/>
<path d="M34 29C34 33.9706 29.9706 38 25 38C20.0294 38 16 33.9706 16 29C16 24.0294 20.0294 20 25 20C29.9706 20 34 24.0294 34 29Z" fill="#F6F6F6"/>
<path fill-rule="evenodd" clip-rule="evenodd" d="M25 36C28.866 36 32 32.866 32 29C32 25.134 28.866 22 25 22C21.134 22 18 25.134 18 29C18 32.866 21.134 36 25 36ZM25 38C29.9706 38 34 33.9706 34 29C34 24.0294 29.9706 20 25 20C20.0294 20 16 24.0294 16 29C16 33.9706 20.0294 38 25 38Z" fill="#333333"/>
<path fill-rule="evenodd" clip-rule="evenodd" d="M29.4187 35.1863C29.8681 34.8653 30.4927 34.9694 30.8137 35.4188L35.8137 42.4188C36.1347 42.8682 36.0306 43.4928 35.5812 43.8138C35.1318 44.1348 34.5072 44.0307 34.1862 43.5813L29.1862 36.5813C28.8652 36.1319 28.9693 35.5073 29.4187 35.1863Z" fill="#333333"/>
</g>
<defs>
<clipPath id="clip0_658_1887">
<rect width="44" height="44" fill="white"/>
</clipPath>
</defs>
</svg>
