<svg width="64" height="64" viewBox="0 0 64 64" fill="none" xmlns="http://www.w3.org/2000/svg">
<path fill-rule="evenodd" clip-rule="evenodd" d="M32 32C25.3726 32 20 26.6274 20 20C20 13.3726 25.3726 8 32 8C38.6274 8 44 13.3726 44 20C44 26.6274 38.6274 32 32 32ZM32 36C23.1634 36 16 28.8366 16 20C16 11.1634 23.1634 4 32 4C40.8366 4 48 11.1634 48 20C48 28.8366 40.8366 36 32 36Z" fill="#333333"/>
<path fill-rule="evenodd" clip-rule="evenodd" d="M60 58C60 43.6406 48.3594 32 34 32H30C15.6406 32 4 43.6406 4 58C4 59.1046 4.89544 60 6 60C7.10457 60 8 59.1046 8 58C8 45.8497 17.8497 36 30 36H34C46.1503 36 56 45.8497 56 58C56 59.1046 56.8954 60 58 60C59.1046 60 60 59.1046 60 58Z" fill="#333333"/>
</svg>
