<svg width="64" height="64" viewBox="0 0 64 64" fill="none" xmlns="http://www.w3.org/2000/svg">
<g clip-path="url(#clip0_484_1230)">
<path fill-rule="evenodd" clip-rule="evenodd" d="M4 4V47H10C11.1046 47 12 47.8954 12 49C12 50.1046 11.1046 51 10 51H3C1.34315 51 0 49.6569 0 48V3C0 1.34315 1.34315 0 3 0H25.5C31.299 0 36 4.70101 36 10.5V11H61C62.6569 11 64 12.3431 64 14V48C64 49.6569 62.6569 51 61 51H54C52.8954 51 52 50.1046 52 49C52 47.8954 52.8954 47 54 47H60V15H34C32.8954 15 32 14.1046 32 13V10.5C32 6.91015 29.0899 4 25.5 4H4Z" fill="#333333"/>
<path fill-rule="evenodd" clip-rule="evenodd" d="M32 53.2072C37.4313 53.2072 41.6364 48.9583 41.6364 43.9575C41.6364 38.9567 37.4313 34.7078 32 34.7078C26.5688 34.7078 22.3636 38.9567 22.3636 43.9575C22.3636 48.9583 26.5688 53.2072 32 53.2072ZM32 57.2072C39.5312 57.2072 45.6364 51.2751 45.6364 43.9575C45.6364 36.6399 39.5312 30.7078 32 30.7078C24.4689 30.7078 18.3636 36.6399 18.3636 43.9575C18.3636 51.2751 24.4689 57.2072 32 57.2072Z" fill="#333333"/>
<path fill-rule="evenodd" clip-rule="evenodd" d="M39.6566 51.3969C40.4488 50.6272 41.7332 50.6272 42.5254 51.3969L52.0034 60.6063C52.7956 61.376 52.7956 62.624 52.0034 63.3937C51.2112 64.1635 49.9268 64.1635 49.1346 63.3937L39.6566 54.1844C38.8644 53.4146 38.8644 52.1667 39.6566 51.3969Z" fill="#333333"/>
</g>
<defs>
<clipPath id="clip0_484_1230">
<rect width="64" height="64" fill="white"/>
</clipPath>
</defs>
</svg>
