<svg width="64" height="64" viewBox="0 0 64 64" fill="none" xmlns="http://www.w3.org/2000/svg">
<g clip-path="url(#clip0_484_1247)">
<path fill-rule="evenodd" clip-rule="evenodd" d="M34 43V56H30V43H34Z" fill="#333333"/>
<path fill-rule="evenodd" clip-rule="evenodd" d="M64 60L-1.40501e-08 60L0 56L64 56L64 60Z" fill="#333333"/>
<path fill-rule="evenodd" clip-rule="evenodd" d="M8 4V40H56V16H34C32.8954 16 32 15.1046 32 14V10.5C32 6.91015 29.0899 4 25.5 4H8ZM25.5 0H7C5.34315 0 4 1.34314 4 3V41C4 42.6569 5.34315 44 7 44H57C58.6569 44 60 42.6569 60 41V15C60 13.3431 58.6569 12 57 12H36V10.5C36 4.70101 31.299 0 25.5 0Z" fill="#333333"/>
<path d="M32.5 51C36.0899 51 39 53.9101 39 57.5C39 61.0899 36.0899 64 32.5 64L31.5 64C27.9101 64 25 61.0899 25 57.5C25 53.9101 27.9102 51 31.5 51L32.5 51Z" fill="#333333"/>
</g>
<defs>
<clipPath id="clip0_484_1247">
<rect width="64" height="64" fill="white"/>
</clipPath>
</defs>
</svg>
