<svg width="64" height="64" viewBox="0 0 64 64" fill="none" xmlns="http://www.w3.org/2000/svg">
<g clip-path="url(#clip0_484_1217)">
<path fill-rule="evenodd" clip-rule="evenodd" d="M26 4H1C0.447715 4 0 4.44771 0 5V59C0 59.5523 0.447715 60 1 60H63C63.5523 60 64 59.5523 64 59V17C64 16.4477 63.5523 16 63 16H36V14C36 8.47715 31.5228 4 26 4ZM36 20C33.7909 20 32 18.2091 32 16V14C32 10.6863 29.3137 8 26 8H4V56H60V20H36Z" fill="#333333"/>
</g>
<defs>
<clipPath id="clip0_484_1217">
<rect width="64" height="64" fill="white"/>
</clipPath>
</defs>
</svg>
