<svg width="64" height="64" viewBox="0 0 64 64" fill="none" xmlns="http://www.w3.org/2000/svg">
<path fill-rule="evenodd" clip-rule="evenodd" d="M0 8C0 5.79086 1.79086 4 4 4H20C22.2091 4 24 5.79086 24 8V44C24 46.2091 22.2091 48 20 48H4C1.79086 48 0 46.2091 0 44V8ZM4 8V44H20V8H4Z" fill="#333333"/>
<path d="M0 12H16V16H0V12Z" fill="#333333"/>
<path d="M0 20H16V24H0V20Z" fill="#333333"/>
<path d="M12 36H16V40H12V36Z" fill="#333333"/>
<path fill-rule="evenodd" clip-rule="evenodd" d="M20 20C20 17.7909 21.7909 16 24 16H40C42.2091 16 44 17.7909 44 20V56C44 58.2091 42.2091 60 40 60H24C21.7909 60 20 58.2091 20 56V20ZM24 20V56H40V20H24Z" fill="#333333"/>
<path d="M20 24H36V28H20V24Z" fill="#333333"/>
<path d="M32 48H36V52H32V48Z" fill="#333333"/>
<path d="M20 32H36V36H20V32Z" fill="#333333"/>
<path fill-rule="evenodd" clip-rule="evenodd" d="M40 8C40 5.79086 41.7909 4 44 4H60C62.2091 4 64 5.79086 64 8V44C64 46.2091 62.2091 48 60 48H44C41.7909 48 40 46.2091 40 44V8ZM44 8V44H60V8H44Z" fill="#333333"/>
<path d="M40 12H56V16H40V12Z" fill="#333333"/>
<path d="M52 36H56V40H52V36Z" fill="#333333"/>
<path d="M40 20H56V24H40V20Z" fill="#333333"/>
</svg>
