<svg width="64" height="64" viewBox="0 0 64 64" fill="none" xmlns="http://www.w3.org/2000/svg">
<g clip-path="url(#clip0_484_1269)">
<path fill-rule="evenodd" clip-rule="evenodd" d="M0.810216 32.3924C0.300597 32.7695 -9.79195e-06 33.366 -8.37285e-06 34L3.32498e-05 52.8333C3.51413e-05 53.7128 0.574531 54.4891 1.4156 54.746L31.4156 63.9127C32.0219 64.098 32.6802 63.9848 33.1898 63.6076C33.6994 63.2305 34 62.634 34 62L34 43.1667C34 42.2872 33.4255 41.511 32.5844 41.254L2.58443 32.0873C1.9781 31.902 1.31983 32.0152 0.810216 32.3924ZM4 36.7024L30 44.6468L30 59.2976L4.00003 51.3532L4 36.7024Z" fill="#333333"/>
<path fill-rule="evenodd" clip-rule="evenodd" d="M63.9511 34.1061C64.1938 33.0285 63.517 31.9582 62.4394 31.7155L43.9394 27.5489C42.8619 27.3062 41.7916 27.983 41.5489 29.0606C41.3062 30.1381 41.983 31.2084 43.0606 31.4511L61.5606 35.6178C62.6381 35.8605 63.7084 35.1837 63.9511 34.1061Z" fill="#333333"/>
<path fill-rule="evenodd" clip-rule="evenodd" d="M63.1857 32.3894C63.6977 32.7663 64 33.3642 64 34L64 52.6667C64 53.5424 63.4303 54.3162 62.5941 54.5764L32.5941 63.9097C31.987 64.0986 31.3263 63.9876 30.8143 63.6106C30.3023 63.2337 30 62.6358 30 62L30 43.3333C30 42.4576 30.5697 41.6837 31.4059 41.4236L61.4059 32.0903C62.013 31.9014 62.6737 32.0124 63.1857 32.3894ZM60 36.7168L34 44.8056L34 59.2832L60 51.1943L60 36.7168Z" fill="#333333"/>
<path fill-rule="evenodd" clip-rule="evenodd" d="M0.0619624 34.3273C-0.21087 33.257 0.435641 32.1681 1.50598 31.8953L18.506 27.562C19.5763 27.2891 20.6652 27.9356 20.938 29.006C21.2109 30.0763 20.5643 31.1652 19.494 31.438L2.494 35.7714C1.42365 36.0442 0.334795 35.3977 0.0619624 34.3273Z" fill="#333333"/>
<path fill-rule="evenodd" clip-rule="evenodd" d="M29.8525 4.1514L28.8675 8.52662L27.8903 8.91751C27.0073 9.27073 26.1785 9.73879 25.4276 10.3L24.6123 10.9093L20.2197 9.55208C19.8337 10.0278 19.4786 10.5253 19.1574 11.0447L18.8641 11.5362C18.5802 12.0355 18.3284 12.5452 18.1103 13.0687L21.5099 16.0764L21.3655 17.1359C21.304 17.5866 21.2711 18.0443 21.2711 18.5032C21.2711 18.9617 21.304 19.4203 21.3659 19.8802L21.5083 20.9378L18.1103 23.9442C18.3284 24.4677 18.5802 24.9774 18.8641 25.4767L19.1574 25.9682C19.4785 26.4874 19.8334 26.9848 20.2193 27.4603L24.6036 26.0955L25.421 26.7065C26.1719 27.2677 27.0006 27.7357 27.8837 28.0889L28.8608 28.4798L29.8453 32.8526C30.5449 32.9496 31.2623 33 31.994 33C32.7257 33 33.4431 32.9496 34.1427 32.8526L35.1272 28.4798L36.1043 28.0889C36.9874 27.7357 37.8161 27.2677 38.567 26.7065L39.3823 26.0971L43.7749 27.4544C44.161 26.9787 44.516 26.4811 44.8372 25.9617L45.1305 25.4702C45.4144 24.971 45.6662 24.4613 45.8843 23.9378L42.4848 20.93L42.6292 19.8705C42.6906 19.4198 42.7236 18.9622 42.7236 18.5032C42.7236 18.0443 42.6906 17.5866 42.6292 17.1359L42.4848 16.0764L45.8911 13.0626C45.673 12.539 45.4211 12.0292 45.1372 11.5298L44.8439 11.0383C44.5226 10.5189 44.1676 10.0213 43.7815 9.54564L39.3889 10.9029L38.5736 10.2935C37.8228 9.73235 36.994 9.26428 36.111 8.91106L35.1338 8.52017L34.1493 4.1474C33.4497 4.05044 32.7323 4 32.0006 4C31.2656 4 30.5485 4.05091 29.8525 4.1514ZM28.8578 0.258661C29.8845 0.0855386 30.9348 0 32.0006 0C33.0684 0 34.1159 0.0858537 35.1355 0.250927C36.5976 0.484408 37.6735 1.5945 37.9758 2.93218L38.5843 5.63492C39.1113 5.89193 39.6207 6.17907 40.1096 6.4936L42.8727 5.63985C44.1442 5.24676 45.65 5.56781 46.6086 6.68949L46.6121 6.69352C47.2121 7.39942 47.7628 8.1515 48.2555 8.94992L48.2633 8.96255L48.5926 9.51441L48.6024 9.53154C49.0547 10.3246 49.4512 11.1529 49.782 12.0227L49.7832 12.0259C50.3181 13.4399 49.8239 14.9314 48.8031 15.8271C48.8012 15.8287 48.7994 15.8304 48.7975 15.832L46.6994 17.6884C46.7153 17.9576 46.7236 18.2294 46.7236 18.5032C46.7236 18.7771 46.7153 19.0489 46.6994 19.3181L48.7975 21.1745C48.7994 21.1761 48.8012 21.1777 48.8031 21.1793C49.8341 22.0839 50.3069 23.572 49.7766 24.9741L49.7753 24.9773C49.4446 25.8472 49.048 26.6754 48.5957 27.4685L48.586 27.4856L48.2566 28.0374L48.2488 28.0501C47.7568 28.8475 47.2068 29.5987 46.6077 30.3038C45.6379 31.4512 44.1216 31.7486 42.8661 31.3602L40.103 30.5064C39.614 30.8209 39.1047 31.1081 38.5777 31.3651L37.9692 34.0678C37.6668 35.4055 36.591 36.5156 35.1289 36.7491C34.1093 36.9141 33.0618 37 31.994 37C30.9262 37 29.8787 36.9141 28.859 36.7491C27.397 36.5155 26.3212 35.4055 26.0188 34.0678L25.4103 31.3651C24.8841 31.1085 24.3755 30.8218 23.8872 30.5078L21.1318 31.3656L21.1285 31.3666C19.8569 31.76 18.3514 31.4388 17.3927 30.317L17.3892 30.3129C16.7892 29.607 16.2385 28.8549 15.7458 28.0565L15.738 28.0439L15.4087 27.492L15.3989 27.4749C14.9466 26.6819 14.55 25.8536 14.2193 24.9838L14.2181 24.9805C13.6877 23.5786 14.1605 22.0905 15.1915 21.1859L17.2956 19.3242C17.2795 19.053 17.2711 18.7793 17.2711 18.5032C17.2711 18.2294 17.2794 17.9576 17.2952 17.6884L15.1914 15.827C14.1605 14.9223 13.6877 13.4343 14.2181 12.0324L14.2193 12.0291C14.55 11.1593 14.9466 10.331 15.3989 9.53799L15.4087 9.52086L15.738 8.969L15.7458 8.95637C16.2379 8.15892 16.7878 7.4077 17.387 6.70255C18.3566 5.55548 19.8725 5.258 21.1278 5.64608L23.8916 6.50005C24.3806 6.18552 24.8899 5.89837 25.4169 5.64137L26.0254 2.93862C26.3273 1.60339 27.3998 0.494909 28.8578 0.258661Z" fill="#333333"/>
<path fill-rule="evenodd" clip-rule="evenodd" d="M32 16C30.3431 16 29 17.3431 29 19C29 20.6569 30.3431 22 32 22C33.6568 22 35 20.6569 35 19C35 17.3431 33.6568 16 32 16ZM25 19C25 15.134 28.134 12 32 12C35.866 12 39 15.134 39 19C39 22.866 35.866 26 32 26C28.134 26 25 22.866 25 19Z" fill="#333333"/>
</g>
<defs>
<clipPath id="clip0_484_1269">
<rect width="64" height="64" fill="white"/>
</clipPath>
</defs>
</svg>
