<svg width="64" height="64" viewBox="0 0 64 64" fill="none" xmlns="http://www.w3.org/2000/svg">
<g clip-path="url(#clip0_484_1224)">
<path fill-rule="evenodd" clip-rule="evenodd" d="M13.9293 0.87868C14.4919 0.31607 15.2549 0 16.0506 0H61C62.6569 0 64 1.34316 64 3V45.6364C64 46.7409 63.1046 47.6364 62 47.6364C60.8954 47.6364 60 46.7409 60 45.6364V4H16.4648L4 16.4648V60H34.7273C35.8318 60 36.7273 60.8954 36.7273 62C36.7273 63.1046 35.8318 64 34.7273 64H3C1.34314 64 0 62.6569 0 61V15.6364C0 15.1059 0.210714 14.5972 0.585786 14.2222L13.9293 0.87868Z" fill="#333333"/>
<path fill-rule="evenodd" clip-rule="evenodd" d="M46 4H22V15H46V4ZM19 0C18.4477 0 18 0.447715 18 1V18C18 18.5523 18.4477 19 19 19H49C49.5523 19 50 18.5523 50 18V1C50 0.447715 49.5523 0 49 0H19Z" fill="#333333"/>
<path fill-rule="evenodd" clip-rule="evenodd" d="M34 50C40.6274 50 46 44.6274 46 38C46 31.3726 40.6274 26 34 26C27.3726 26 22 31.3726 22 38C22 44.6274 27.3726 50 34 50ZM34 54C42.8366 54 50 46.8366 50 38C50 29.1634 42.8366 22 34 22C25.1634 22 18 29.1634 18 38C18 46.8366 25.1634 54 34 54Z" fill="#333333"/>
<path fill-rule="evenodd" clip-rule="evenodd" d="M43.5858 46.5858C44.3669 45.8047 45.6332 45.8047 46.4143 46.5858L60.4143 60.5858C61.1953 61.3668 61.1953 62.6331 60.4143 63.4142C59.6332 64.1952 58.3669 64.1952 57.5859 63.4142L43.5858 49.4142C42.8048 48.6332 42.8048 47.3668 43.5858 46.5858Z" fill="#333333"/>
</g>
<defs>
<clipPath id="clip0_484_1224">
<rect width="64" height="64" fill="white"/>
</clipPath>
</defs>
</svg>
