<svg width="64" height="64" viewBox="0 0 64 64" fill="none" xmlns="http://www.w3.org/2000/svg">
<g clip-path="url(#clip0_484_1243)">
<path fill-rule="evenodd" clip-rule="evenodd" d="M27.2727 50.0117C40.163 50.0117 50.5454 39.6746 50.5454 27.0058C50.5454 14.3371 40.163 4 27.2727 4C14.3824 4 4 14.3371 4 27.0058C4 39.6746 14.3824 50.0117 27.2727 50.0117ZM27.2727 54.0117C42.335 54.0117 54.5454 41.9208 54.5454 27.0058C54.5454 12.0909 42.335 0 27.2727 0C12.2104 0 0 12.0909 0 27.0058C0 41.9208 12.2104 54.0117 27.2727 54.0117Z" fill="#333333"/>
<path fill-rule="evenodd" clip-rule="evenodd" d="M42.5858 45.4142L45.4142 42.5858L63.4142 60.5858C64.1953 61.3668 64.1953 62.6332 63.4142 63.4142C62.6332 64.1953 61.3669 64.1953 60.5858 63.4142L42.5858 45.4142Z" fill="#333333"/>
</g>
<defs>
<clipPath id="clip0_484_1243">
<rect width="64" height="64" fill="white"/>
</clipPath>
</defs>
</svg>
