<svg width="64" height="64" viewBox="0 0 64 64" fill="none" xmlns="http://www.w3.org/2000/svg">
<g clip-path="url(#clip0_484_1258)">
<path fill-rule="evenodd" clip-rule="evenodd" d="M18 20C13.5817 20 10 16.4183 10 12C10 7.58172 13.5817 4 18 4C22.4183 4 26 7.58172 26 12C26 16.4183 22.4183 20 18 20ZM18 24C11.3726 24 6 18.6274 6 12C6 5.37258 11.3726 0 18 0C24.6274 0 30 5.37258 30 12C30 18.6274 24.6274 24 18 24Z" fill="#333333"/>
<path fill-rule="evenodd" clip-rule="evenodd" d="M4.38035 26.697C7.30353 23.7295 11.5253 22 16.7273 22C21.972 22 26.7785 23.7538 30.2787 26.6642C31.128 27.3704 31.244 28.6314 30.5378 29.4807C29.8316 30.3301 28.5706 30.4461 27.7213 29.7399C24.9844 27.4641 21.0979 26 16.7273 26C12.44 26 9.29812 27.4045 7.22998 29.504C5.15058 31.615 4 34.5871 4 38C4 39.1046 3.10457 40 2 40C0.89543 40 0 39.1046 0 38C0 33.6809 1.46843 29.6531 4.38035 26.697Z" fill="#333333"/>
<path fill-rule="evenodd" clip-rule="evenodd" d="M42 19C47.5228 19 52 23.4772 52 29C52 34.5228 47.5228 39 42 39C36.4772 39 32 34.5228 32 29C32 23.4772 36.4772 19 42 19ZM56 29C56 21.268 49.732 15 42 15C34.268 15 28 21.268 28 29C28 36.732 34.268 43 42 43C49.732 43 56 36.732 56 29Z" fill="#333333"/>
<path fill-rule="evenodd" clip-rule="evenodd" d="M64 62C64 49.2975 53.7025 39 41 39C28.2975 39 18 49.2975 18 62C18 63.1046 18.8954 64 20 64C21.1046 64 22 63.1046 22 62C22 51.5066 30.5066 43 41 43C51.4934 43 60 51.5066 60 62C60 63.1046 60.8954 64 62 64C63.1046 64 64 63.1046 64 62Z" fill="#333333"/>
</g>
<defs>
<clipPath id="clip0_484_1258">
<rect width="64" height="64" fill="white"/>
</clipPath>
</defs>
</svg>
