<svg width="32" height="32" viewBox="0 0 32 32" fill="none" xmlns="http://www.w3.org/2000/svg">
<g clip-path="url(#clip0_613_1828)">
<path d="M20 32L12 32L12 24L20 24L20 32Z" fill="#8A8E8F"/>
<path d="M32 23C32 24.6569 30.6569 26 29 26L2.99999 26C1.34314 26 -3.69308e-06 24.6569 -3.54306e-06 23L-1.91325e-06 5C-1.76323e-06 3.34315 1.34314 2 3 2L29 2C30.6569 2 32 3.34315 32 5L32 23Z" fill="#333333"/>
<path d="M30 21C30 21.5523 29.5523 22 29 22L3 22C2.44771 22 2 21.5523 2 21L2 5C2 4.44772 2.44772 4 3 4L29 4C29.5523 4 30 4.44772 30 5L30 21Z" fill="#CDCDCE"/>
<path d="M23 30C23.5523 30 24 30.4477 24 31V31C24 31.5523 23.5523 32 23 32L9 32C8.44772 32 8 31.5523 8 31V31C8 30.4477 8.44772 30 9 30L23 30Z" fill="#333333"/>
</g>
<defs>
<clipPath id="clip0_613_1828">
<rect width="32" height="32" fill="white"/>
</clipPath>
</defs>
</svg>
