<svg width="16" height="16" viewBox="0 0 16 16" fill="none" xmlns="http://www.w3.org/2000/svg">
<g clip-path="url(#clip0_652_1839)">
<path fill-rule="evenodd" clip-rule="evenodd" d="M6.09283 1C6.09283 0.447714 6.54055 0 7.09283 0H8.90533C9.45762 0 9.90533 0.447715 9.90533 1V2.00619C9.90533 2.00619 9.90619 2.00836 9.90822 2.01102C9.91278 2.01698 9.92163 2.02434 9.93456 2.02852C10.2572 2.133 10.5992 2.26915 10.8964 2.42201C10.9085 2.4282 10.889 2.42299 10.8964 2.42201C10.8997 2.42157 10.9019 2.42065 10.9019 2.42065L11.6106 1.71195C12.0011 1.32142 12.6343 1.32142 13.0248 1.71195L14.2871 2.97422C14.6776 3.36474 14.6776 3.99791 14.2871 4.38843L13.5785 5.097C13.5785 5.097 13.5775 5.09916 13.5771 5.10246C13.5761 5.10988 13.5772 5.12131 13.5834 5.13335C13.7363 5.43071 13.8663 5.74194 13.9708 6.06466C13.975 6.07758 13.9823 6.08643 13.9883 6.09099C13.9909 6.09303 13.9931 6.09388 13.9931 6.09388H15C15.5523 6.09388 16 6.5416 16 7.09388V8.90638C16 9.45867 15.5523 9.90638 15 9.90638H13.993C13.993 9.90638 13.9909 9.90723 13.9882 9.90927C13.9822 9.91383 13.9749 9.92268 13.9707 9.9356C13.8662 10.2582 13.7363 10.5693 13.5834 10.8665C13.5773 10.8786 13.5762 10.89 13.5772 10.8974C13.5776 10.9007 13.5785 10.9029 13.5785 10.9029L14.2871 11.6114C14.6776 12.002 14.6776 12.6351 14.2871 13.0257L13.0248 14.2879C12.6343 14.6785 12.0011 14.6785 11.6106 14.2879L10.902 13.5793C10.902 13.5793 10.8998 13.5784 10.8965 13.5779C10.8891 13.577 10.8777 13.578 10.8657 13.5842C10.5684 13.7371 10.2572 13.867 9.93456 13.9715C9.92163 13.9757 9.91278 13.983 9.90822 13.989C9.90619 13.9916 9.90533 13.9938 9.90533 13.9938V15C9.90533 15.5523 9.45762 16 8.90533 16H7.09283C6.54055 16 6.09283 15.5523 6.09283 15V13.9936C6.09283 13.9936 6.09198 13.9915 6.08995 13.9888C6.08539 13.9829 6.07654 13.9755 6.06362 13.9713C5.74104 13.8668 5.39905 13.7306 5.10181 13.5778C5.08977 13.5716 5.10923 13.5768 5.10181 13.5778C5.09997 13.578 5.09771 13.5786 5.09771 13.5786L5.09637 13.5791L4.38756 14.2879C3.99703 14.6785 3.36386 14.6785 2.97334 14.2879L1.71107 13.0257C1.32054 12.6351 1.32055 12.002 1.71107 11.6114L2.41998 10.9026C2.41998 10.9026 2.42092 10.9004 2.42136 10.8971C2.42233 10.8897 2.42126 10.8782 2.41507 10.8662C2.26227 10.5691 2.13245 10.2581 2.02799 9.9356C2.02381 9.92268 2.01645 9.91383 2.01049 9.90927C2.00783 9.90723 2.00566 9.90638 2.00566 9.90638H1C0.447714 9.90638 0 9.45866 0 8.90638V7.09388C0 6.5416 0.447715 6.09388 1 6.09388H2.00558C2.00558 6.09388 2.00775 6.09303 2.01041 6.09099C2.01637 6.08643 2.02372 6.07758 2.02791 6.06466C2.13239 5.74206 2.26226 5.43095 2.41512 5.13369C2.42131 5.12165 2.42239 5.11023 2.42141 5.10281C2.42097 5.0995 2.42005 5.09737 2.42005 5.09737L1.71111 4.38843C1.32059 3.99791 1.32059 3.36474 1.71111 2.97422L2.97338 1.71195C3.36391 1.32142 3.99707 1.32142 4.3876 1.71195L5.09648 2.42083C5.09648 2.42083 5.09861 2.42175 5.10191 2.42219C5.10933 2.42317 5.12076 2.42209 5.1328 2.4159C5.43001 2.26305 5.74107 2.13318 6.06362 2.02869C6.07654 2.0245 6.08539 2.01715 6.08995 2.01119C6.09198 2.00853 6.09283 2.00636 6.09283 2.00636V1ZM8.90533 1L7.09283 1V2.00649C7.09283 2.47223 6.77701 2.84875 6.37181 2.98001C6.10106 3.06773 5.83985 3.17677 5.59015 3.30519C5.2104 3.50049 4.71949 3.45805 4.38946 3.12802L3.68049 2.41905L2.41822 3.68133L3.12724 4.39035C3.45726 4.72037 3.49971 5.21126 3.30443 5.591C3.176 5.84074 3.06696 6.10199 2.97925 6.37279C2.84801 6.77802 2.47148 7.09388 2.00571 7.09388H1V8.90638H2.00579C2.47154 8.90638 2.84806 9.22222 2.97933 9.62743C3.06701 9.89812 3.17601 10.1593 3.30438 10.4089C3.49965 10.7886 3.4572 11.2795 3.12719 11.6095L2.41818 12.3186L3.68045 13.5808L4.38935 12.8719C4.71939 12.5419 5.21031 12.4995 5.59006 12.6948C5.83979 12.8232 6.10103 12.9323 6.37181 13.02C6.77701 13.1513 7.09283 13.5278 7.09283 13.9935V15L8.90533 15V13.9937C8.90533 13.5279 9.2212 13.1514 9.62645 13.0201C9.89728 12.9324 10.1586 12.8234 10.4083 12.6949C10.7881 12.4996 11.279 12.5421 11.609 12.8721L12.3177 13.5808L13.58 12.3186L12.8713 11.6099C12.5413 11.2799 12.4989 10.7889 12.6942 10.4092C12.8226 10.1595 12.9316 9.89822 13.0194 9.62743C13.1506 9.22221 13.5271 8.90638 13.9929 8.90638H15V7.09388H13.993C13.5272 7.09388 13.1507 6.77802 13.0194 6.37279C12.9317 6.10189 12.8226 5.84054 12.6941 5.59072C12.4988 5.21097 12.5412 4.72004 12.8713 4.39001L13.58 3.68133L12.3177 2.41905L11.6089 3.12784C11.2789 3.45786 10.788 3.5003 10.4083 3.30504C10.1585 3.17661 9.89725 3.06758 9.62645 2.97987C9.22121 2.84863 8.90533 2.4721 8.90533 2.00632V1Z" fill="#8A8E8F"/>
<path fill-rule="evenodd" clip-rule="evenodd" d="M8 10.5C9.38071 10.5 10.5 9.38071 10.5 8C10.5 6.61929 9.38071 5.5 8 5.5C6.61929 5.5 5.5 6.61929 5.5 8C5.5 9.38071 6.61929 10.5 8 10.5ZM8 11.5C9.933 11.5 11.5 9.933 11.5 8C11.5 6.067 9.933 4.5 8 4.5C6.067 4.5 4.5 6.067 4.5 8C4.5 9.933 6.067 11.5 8 11.5Z" fill="#8A8E8F"/>
<path fill-rule="evenodd" clip-rule="evenodd" d="M7.09283 1L8.90533 1V2.00632C8.90533 2.4721 9.22121 2.84863 9.62645 2.97987C9.89725 3.06758 10.1585 3.17661 10.4083 3.30504C10.788 3.5003 11.2789 3.45786 11.6089 3.12784L12.3177 2.41905L13.58 3.68133L12.8713 4.39001C12.5412 4.72004 12.4988 5.21097 12.6941 5.59072C12.8226 5.84054 12.9317 6.10189 13.0194 6.37279C13.1507 6.77802 13.5272 7.09388 13.993 7.09388H15V8.90638H13.9929C13.5271 8.90638 13.1506 9.22221 13.0194 9.62743C12.9316 9.89822 12.8226 10.1595 12.6942 10.4092C12.4989 10.7889 12.5413 11.2799 12.8713 11.6099L13.58 12.3186L12.3177 13.5808L11.609 12.8721C11.279 12.5421 10.7881 12.4996 10.4083 12.6949C10.1586 12.8234 9.89728 12.9324 9.62645 13.0201C9.2212 13.1514 8.90533 13.5279 8.90533 13.9937V15L7.09283 15V13.9935C7.09283 13.5278 6.77701 13.1513 6.37181 13.02C6.10103 12.9323 5.83979 12.8232 5.59006 12.6948C5.21031 12.4995 4.71939 12.5419 4.38935 12.8719L3.68045 13.5808L2.41818 12.3186L3.12719 11.6095C3.4572 11.2795 3.49965 10.7886 3.30438 10.4089C3.17601 10.1593 3.06701 9.89812 2.97933 9.62743C2.84806 9.22222 2.47154 8.90638 2.00579 8.90638H1V7.09388H2.00571C2.47148 7.09388 2.84801 6.77802 2.97925 6.37279C3.06696 6.10199 3.176 5.84074 3.30443 5.591C3.49971 5.21126 3.45726 4.72037 3.12724 4.39035L2.41822 3.68133L3.68049 2.41905L4.38946 3.12802C4.71949 3.45805 5.2104 3.50049 5.59015 3.30519C5.83985 3.17677 6.10106 3.06773 6.37181 2.98001C6.77701 2.84875 7.09283 2.47223 7.09283 2.00649V1ZM8 11.5C9.933 11.5 11.5 9.933 11.5 8C11.5 6.067 9.933 4.5 8 4.5C6.067 4.5 4.5 6.067 4.5 8C4.5 9.933 6.067 11.5 8 11.5Z" fill="#CDCDCE"/>
</g>
<defs>
<clipPath id="clip0_652_1839">
<rect width="16" height="16" fill="white"/>
</clipPath>
</defs>
</svg>
