<svg width="32" height="32" viewBox="0 0 32 32" fill="none" xmlns="http://www.w3.org/2000/svg">
<g clip-path="url(#clip0_651_1798)">
<path fill-rule="evenodd" clip-rule="evenodd" d="M12.1857 2C12.1857 0.895429 13.0811 0 14.1857 0H17.8107C18.9152 0 19.8107 0.895431 19.8107 2V4.01238C19.8107 4.01238 19.8124 4.01672 19.8164 4.02204C19.8256 4.03396 19.8433 4.04867 19.8691 4.05704C20.5143 4.266 21.1983 4.5383 21.7929 4.84402C21.8169 4.8564 21.778 4.84598 21.7929 4.84402C21.7995 4.84315 21.8037 4.8413 21.8037 4.8413L23.2211 3.42389C24.0022 2.64285 25.2685 2.64285 26.0496 3.4239L28.5741 5.94844C29.3552 6.72949 29.3552 7.99582 28.5741 8.77687L27.157 10.194C27.157 10.194 27.1551 10.1983 27.1542 10.2049C27.1523 10.2198 27.1544 10.2426 27.1668 10.2667C27.4727 10.8614 27.7325 11.4839 27.9416 12.1293C27.9499 12.1552 27.9647 12.1729 27.9766 12.182C27.9819 12.1861 27.9862 12.1878 27.9862 12.1878H30C31.1046 12.1878 32 13.0832 32 14.1878V17.8128C32 18.9173 31.1046 19.8128 30 19.8128H27.9861C27.9861 19.8128 27.9817 19.8145 27.9764 19.8185C27.9645 19.8277 27.9498 19.8454 27.9414 19.8712C27.7324 20.5164 27.4726 21.1386 27.1669 21.7331C27.1545 21.7572 27.1524 21.78 27.1543 21.7949C27.1552 21.8015 27.157 21.8057 27.157 21.8057L28.5742 23.2229C29.3552 24.0039 29.3552 25.2703 28.5742 26.0513L26.0497 28.5759C25.2686 29.3569 24.0023 29.3569 23.2212 28.5759L21.804 27.1586C21.804 27.1586 21.7997 27.1567 21.7931 27.1559C21.7782 27.1539 21.7554 27.1561 21.7313 27.1684C21.1367 27.4742 20.5144 27.734 19.8691 27.943C19.8433 27.9513 19.8256 27.966 19.8164 27.978C19.8124 27.9833 19.8107 27.9876 19.8107 27.9876V30C19.8107 31.1046 18.9152 32 17.8107 32H14.1857C13.0811 32 12.1857 31.1046 12.1857 30V27.9873C12.1857 27.9873 12.184 27.9829 12.1799 27.9776C12.1708 27.9657 12.1531 27.951 12.1272 27.9426C11.4821 27.7336 10.7981 27.4613 10.2036 27.1555C10.1795 27.1431 10.2185 27.1536 10.2036 27.1555C10.1999 27.156 10.1954 27.1572 10.1954 27.1572L10.1927 27.1582L8.77511 28.5759C7.99406 29.3569 6.72773 29.3569 5.94668 28.5759L3.42214 26.0513C2.64109 25.2703 2.64109 24.0039 3.42214 23.2229L4.83996 21.8051C4.83996 21.8051 4.84184 21.8008 4.84271 21.7942C4.84467 21.7793 4.84252 21.7565 4.83014 21.7324C4.52454 21.1381 4.2649 20.5161 4.05599 19.8712C4.04762 19.8454 4.0329 19.8277 4.02098 19.8185C4.01566 19.8145 4.01133 19.8128 4.01133 19.8128H2C0.895428 19.8128 0 18.9173 0 17.8128V14.1878C0 13.0832 0.89543 12.1878 2 12.1878H4.01116C4.01116 12.1878 4.01549 12.1861 4.02081 12.182C4.03273 12.1729 4.04745 12.1552 4.05582 12.1293C4.26479 11.4841 4.52452 10.8619 4.83025 10.2674C4.84263 10.2433 4.84478 10.2205 4.84282 10.2056C4.84195 10.199 4.8401 10.1947 4.8401 10.1947L3.42222 8.77687C2.64118 7.99582 2.64117 6.72949 3.42222 5.94844L5.94677 3.42389C6.72782 2.64284 7.99415 2.64285 8.77519 3.4239L10.193 4.84166C10.193 4.84166 10.1972 4.8435 10.2038 4.84438C10.2187 4.84633 10.2415 4.84418 10.2656 4.8318C10.86 4.52609 11.4821 4.26636 12.1272 4.05738C12.1531 4.04901 12.1708 4.03429 12.1799 4.02237C12.184 4.01705 12.1857 4.01272 12.1857 4.01272V2ZM17.8107 2L14.1857 2V4.01298C14.1857 4.94446 13.554 5.69749 12.7436 5.96003C12.2021 6.13545 11.6797 6.35353 11.1803 6.61037C10.4208 7.00097 9.43897 6.9161 8.77892 6.25604L7.36098 4.83811L4.83644 7.36265L6.25449 8.78071C6.91452 9.44074 6.99941 10.4225 6.60886 11.182C6.35201 11.6815 6.13392 12.204 5.95851 12.7456C5.69601 13.556 4.94296 14.1878 4.01142 14.1878H2V17.8128H4.01159C4.94309 17.8128 5.69613 18.4444 5.95865 19.2549C6.13402 19.7962 6.35202 20.3185 6.60877 20.8178C6.9993 21.5773 6.9144 22.5591 6.25438 23.2191L4.83635 24.6371L7.3609 27.1617L8.77871 25.7438C9.43878 25.0838 10.4206 24.9989 11.1801 25.3895C11.6796 25.6464 12.2021 25.8645 12.7436 26.04C13.554 26.3025 14.1857 27.0555 14.1857 27.987V30L17.8107 30V27.9874C17.8107 27.0558 18.4424 26.3027 19.2529 26.0403C19.7946 25.8648 20.3171 25.6467 20.8167 25.3898C21.5762 24.9993 22.558 25.0842 23.218 25.7442L24.6354 27.1617L27.16 24.6371L25.7426 23.2198C25.0826 22.5597 24.9977 21.5779 25.3883 20.8184C25.6452 20.3189 25.8633 19.7964 26.0387 19.2549C26.3013 18.4444 27.0543 17.8128 27.9858 17.8128H30V14.1878H27.986C27.0544 14.1878 26.3014 13.556 26.0389 12.7456C25.8634 12.2038 25.6452 11.6811 25.3882 11.1814C24.9976 10.4219 25.0825 9.44008 25.7425 8.78001L27.1599 7.36265L24.6354 4.83811L23.2178 6.25569C22.5578 6.91571 21.576 7.00061 20.8165 6.61007C20.317 6.35323 19.7945 6.13515 19.2529 5.95975C18.4424 5.69726 17.8107 4.9442 17.8107 4.01264V2Z" fill="black"/>
<path fill-rule="evenodd" clip-rule="evenodd" d="M16 21C18.7614 21 21 18.7614 21 16C21 13.2386 18.7614 11 16 11C13.2386 11 11 13.2386 11 16C11 18.7614 13.2386 21 16 21ZM16 23C19.866 23 23 19.866 23 16C23 12.134 19.866 9 16 9C12.134 9 9 12.134 9 16C9 19.866 12.134 23 16 23Z" fill="black"/>
</g>
<defs>
<clipPath id="clip0_651_1798">
<rect width="32" height="32" fill="white"/>
</clipPath>
</defs>
</svg>
