<svg width="32" height="32" viewBox="0 0 32 32" fill="none" xmlns="http://www.w3.org/2000/svg">
<path d="M0 3C0 2.44771 0.447715 2 1 2H14C16.2091 2 18 3.79086 18 6V8H30C31.1046 8 32 8.89543 32 10V29C32 29.5523 31.5523 30 31 30H1C0.447715 30 0 29.5523 0 29V3Z" fill="#E5CE8A"/>
<path d="M0 9C0 8.44772 0.447715 8 1 8H30C31.1046 8 32 8.89543 32 10V29C32 29.5523 31.5523 30 31 30H1C0.447715 30 0 29.5523 0 29V9Z" fill="#FFE599"/>
<rect x="10" y="27" width="12" height="4" fill="white"/>
<path fill-rule="evenodd" clip-rule="evenodd" d="M8 29V15C8 13.3431 9.34315 12 11 12H22C23.1046 12 24 12.8954 24 14V26C24 27.1046 23.1046 28 22 28H11C10.4477 28 10 28.4477 10 29C10 29.5523 10.4477 30 11 30H23C23.5523 30 24 30.4477 24 31C24 31.5523 23.5523 32 23 32H11C9.34315 32 8 30.6569 8 29Z" fill="#EFAB46"/>
</svg>
