<svg width="32" height="32" viewBox="0 0 32 32" fill="none" xmlns="http://www.w3.org/2000/svg">
<path d="M17 8C17 8.55228 17.4477 9 18 9H30C30.5523 9 31 9.44771 31 10V29H1V3L14 3C15.6569 3 17 4.34315 17 6V8Z" fill="#8A8E8F" stroke="#8A8E8F" stroke-width="2" stroke-linecap="round" stroke-linejoin="round"/>
<path d="M1 9L30 9C30.5523 9 31 9.44772 31 10V29H1V9Z" fill="#CDCDCE" stroke="#CDCDCE" stroke-width="2" stroke-linecap="round" stroke-linejoin="round"/>
<rect x="10" y="27" width="12" height="4" fill="white"/>
<path fill-rule="evenodd" clip-rule="evenodd" d="M8 29V15C8 13.3431 9.34315 12 11 12H22C23.1046 12 24 12.8954 24 14V26C24 27.1046 23.1046 28 22 28H11C10.4477 28 10 28.4477 10 29C10 29.5523 10.4477 30 11 30H23C23.5523 30 24 30.4477 24 31C24 31.5523 23.5523 32 23 32H11C9.34315 32 8 30.6569 8 29Z" fill="#333333"/>
</svg>
