<svg width="32" height="32" viewBox="0 0 32 32" fill="none" xmlns="http://www.w3.org/2000/svg">
<g clip-path="url(#clip0_613_1680)">
<path d="M32 29V3C32 1.34315 30.6569 0 29 0H8.10116C7.57072 0 7.06201 0.210714 6.68694 0.585787L0 7.27273V29C0 30.6569 1.34315 32 3 32H29C30.6569 32 32 30.6569 32 29Z" fill="#CDCDCE"/>
<path d="M10 0H26V10C26 11.1046 25.1046 12 24 12H12C10.8954 12 10 11.1046 10 10V0Z" fill="#333333"/>
<path d="M16 9C16 9.55228 15.5523 10 15 10L13 10C12.4477 10 12 9.55228 12 9L12 3C12 2.44772 12.4477 2 13 2L15 2C15.5523 2 16 2.44772 16 3L16 9Z" fill="#CDCDCE"/>
<path d="M24 21C24 24.866 20.866 28 17 28C13.134 28 10 24.866 10 21C10 17.134 13.134 14 17 14C20.866 14 24 17.134 24 21Z" fill="#F6F6F6"/>
<path fill-rule="evenodd" clip-rule="evenodd" d="M17 26C19.7614 26 22 23.7614 22 21C22 18.2386 19.7614 16 17 16C14.2386 16 12 18.2386 12 21C12 23.7614 14.2386 26 17 26ZM17 28C20.866 28 24 24.866 24 21C24 17.134 20.866 14 17 14C13.134 14 10 17.134 10 21C10 24.866 13.134 28 17 28Z" fill="#333333"/>
<path fill-rule="evenodd" clip-rule="evenodd" d="M20.3754 25.2192C20.8066 24.8742 21.4359 24.9441 21.7809 25.3754L25.7809 30.3754C26.1259 30.8066 26.056 31.4359 25.6247 31.7809C25.1935 32.1259 24.5642 32.056 24.2192 31.6247L20.2192 26.6247C19.8742 26.1935 19.9441 25.5642 20.3754 25.2192Z" fill="#333333"/>
</g>
<defs>
<clipPath id="clip0_613_1680">
<rect width="32" height="32" fill="white"/>
</clipPath>
</defs>
</svg>
