<svg width="32" height="32" viewBox="0 0 32 32" fill="none" xmlns="http://www.w3.org/2000/svg">
<path fill-rule="evenodd" clip-rule="evenodd" d="M16 18C12.134 18 9 14.866 9 11C9 7.13401 12.134 4 16 4C19.866 4 23 7.13401 23 11C23 14.866 19.866 18 16 18ZM16 20C11.0294 20 7 15.9706 7 11C7 6.02944 11.0294 2 16 2C20.9706 2 25 6.02944 25 11C25 15.9706 20.9706 20 16 20Z" fill="black"/>
<path fill-rule="evenodd" clip-rule="evenodd" d="M20.3077 20H11.6923C7.59168 20 4 23.6518 4 28.5C4 29.4822 4.69875 30 5.23077 30H26.7692C27.3013 30 28 29.4822 28 28.5C28 23.6518 24.4083 20 20.3077 20ZM11.6923 18C6.33939 18 2 22.701 2 28.5C2 30.433 3.44647 32 5.23077 32H26.7692C28.5535 32 30 30.433 30 28.5C30 22.701 25.6606 18 20.3077 18H11.6923Z" fill="black"/>
</svg>
