<svg width="32" height="32" viewBox="0 0 32 32" fill="none" xmlns="http://www.w3.org/2000/svg">
<path d="M0 3C0 2.44771 0.447715 2 1 2H14C16.2091 2 18 3.79086 18 6V8H30C31.1046 8 32 8.89543 32 10V29C32 29.5523 31.5523 30 31 30H1C0.447715 30 0 29.5523 0 29V3Z" fill="#E6CE8A"/>
<path fill-rule="evenodd" clip-rule="evenodd" d="M18 10C16.8954 10 16 9.10457 16 8V6C16 4.89543 15.1046 4 14 4H2V28H30V10H18ZM30 8C31.1046 8 32 8.89543 32 10V29C32 29.5523 31.5523 30 31 30H1C0.447715 30 0 29.5523 0 29V3C0 2.44771 0.447715 2 1 2H14C16.2091 2 18 3.79086 18 6V8H30Z" fill="#E5CE8A"/>
<path d="M0 9C0 8.44772 0.447715 8 1 8H30C31.1046 8 32 8.89543 32 10V29C32 29.5523 31.5523 30 31 30H1C0.447715 30 0 29.5523 0 29V9Z" fill="#FFE599"/>
<path fill-rule="evenodd" clip-rule="evenodd" d="M30 28V10H2V28H30ZM1 8C0.447715 8 0 8.44772 0 9V29C0 29.5523 0.447715 30 1 30H31C31.5523 30 32 29.5523 32 29V10C32 8.89543 31.1046 8 30 8H1Z" fill="#FFE599"/>
<path d="M10 27H22V31H10V27Z" fill="white"/>
<path d="M23 14C23 13.4477 22.5523 13 22 13H11L-nan -nanL11 13C9.89543 13 9 13.8954 9 15V29C9 27.8954 9.89543 27 11 27H22C22.5523 27 23 26.5523 23 26V14Z" fill="#EFAB46"/>
<path fill-rule="evenodd" clip-rule="evenodd" d="M11 14C10.4477 14 10 14.4477 10 15V26.1707C10.3128 26.0602 10.6494 26 11 26H22V14H11ZM8 29V15C8 13.3431 9.34315 12 11 12H22C23.1046 12 24 12.8954 24 14V26C24 27.1046 23.1046 28 22 28H11C10.4477 28 10 28.4477 10 29C10 29.5523 10.4477 30 11 30H23C23.5523 30 24 30.4477 24 31C24 31.5523 23.5523 32 23 32H11C9.34315 32 8 30.6569 8 29Z" fill="#EFAB46"/>
</svg>
