<svg width="32" height="32" viewBox="0 0 32 32" fill="none" xmlns="http://www.w3.org/2000/svg">
<path d="M0 3C0 2.44771 0.447715 2 1 2H14C16.2091 2 18 3.79086 18 6V8H30C31.1046 8 32 8.89543 32 10V29C32 29.5523 31.5523 30 31 30H1C0.447715 30 0 29.5523 0 29V3Z" fill="#8A8E8F"/>
<path fill-rule="evenodd" clip-rule="evenodd" d="M18 10C16.8954 10 16 9.10457 16 8V6C16 4.89543 15.1046 4 14 4H2V28H30V10H18ZM30 8C31.1046 8 32 8.89543 32 10V29C32 29.5523 31.5523 30 31 30H1C0.447715 30 0 29.5523 0 29V3C0 2.44771 0.447715 2 1 2H14C16.2091 2 18 3.79086 18 6V8H30Z" fill="#8A8E8F"/>
<path d="M0 9C0 8.44772 0.447715 8 1 8H30C31.1046 8 32 8.89543 32 10V29C32 29.5523 31.5523 30 31 30H1C0.447715 30 0 29.5523 0 29V9Z" fill="#CDCDCE"/>
<path fill-rule="evenodd" clip-rule="evenodd" d="M30 28V10H2V28H30ZM1 8C0.447715 8 0 8.44772 0 9V29C0 29.5523 0.447715 30 1 30H31C31.5523 30 32 29.5523 32 29V10C32 8.89543 31.1046 8 30 8H1Z" fill="#CDCDCE"/>
<path d="M22 21C22 24.866 18.866 28 15 28C11.134 28 8 24.866 8 21C8 17.134 11.134 14 15 14C18.866 14 22 17.134 22 21Z" fill="#F6F6F6"/>
<path fill-rule="evenodd" clip-rule="evenodd" d="M15 26C17.7614 26 20 23.7614 20 21C20 18.2386 17.7614 16 15 16C12.2386 16 10 18.2386 10 21C10 23.7614 12.2386 26 15 26ZM15 28C18.866 28 22 24.866 22 21C22 17.134 18.866 14 15 14C11.134 14 8 17.134 8 21C8 24.866 11.134 28 15 28Z" fill="#333333"/>
<path fill-rule="evenodd" clip-rule="evenodd" d="M18.3754 25.2192C18.8066 24.8742 19.4359 24.9441 19.7809 25.3754L23.7809 30.3754C24.1259 30.8066 24.056 31.4359 23.6247 31.7809C23.1935 32.1259 22.5642 32.056 22.2192 31.6247L18.2192 26.6247C17.8742 26.1935 17.9441 25.5642 18.3754 25.2192Z" fill="#333333"/>
</svg>
