<svg width="32" height="32" viewBox="0 0 32 32" fill="none" xmlns="http://www.w3.org/2000/svg">
<path fill-rule="evenodd" clip-rule="evenodd" d="M0 3C0 2.44772 0.447715 2 1 2H12.75C15.6495 2 18 4.3505 18 7.25V8H29C30.6569 8 32 9.34315 32 11V29C32 29.5523 31.5523 30 31 30H27C26.4477 30 26 29.5523 26 29C26 28.4477 26.4477 28 27 28H30V11C30 10.4477 29.5523 10 29 10H17C16.4477 10 16 9.55228 16 9V7.25C16 5.45507 14.5449 4 12.75 4H2V28H5C5.55228 28 6 28.4477 6 29C6 29.5523 5.55228 30 5 30H1C0.447715 30 0 29.5523 0 29V3Z" fill="black"/>
<path d="M18.5 8C19.0523 8 19.5 8.44772 19.5 9V9C19.5 9.55229 19.0523 10 18.5 10L9 10C8.44772 10 8 9.55228 8 9V9C8 8.44771 8.44772 8 9 8L18.5 8Z" fill="black"/>
<path fill-rule="evenodd" clip-rule="evenodd" d="M15 26C17.7614 26 20 23.7614 20 21C20 18.2386 17.7614 16 15 16C12.2386 16 10 18.2386 10 21C10 23.7614 12.2386 26 15 26ZM15 28C18.866 28 22 24.866 22 21C22 17.134 18.866 14 15 14C11.134 14 8 17.134 8 21C8 24.866 11.134 28 15 28Z" fill="black"/>
<path fill-rule="evenodd" clip-rule="evenodd" d="M18.3754 25.2192C18.8066 24.8742 19.4359 24.9441 19.7809 25.3754L23.7809 30.3754C24.1259 30.8066 24.056 31.4359 23.6247 31.7809C23.1935 32.1259 22.5642 32.056 22.2192 31.6247L18.2192 26.6247C17.8742 26.1935 17.9441 25.5642 18.3754 25.2192Z" fill="black"/>
</svg>
