<svg width="32" height="32" viewBox="0 0 32 32" fill="none" xmlns="http://www.w3.org/2000/svg">
<path fill-rule="evenodd" clip-rule="evenodd" d="M0 3C0 2.44772 0.447715 2 1 2H13C15.7614 2 18 4.23858 18 7V8H29C30.6569 8 32 9.34315 32 11V29C32 29.5523 31.5523 30 31 30H27C26.4477 30 26 29.5523 26 29C26 28.4477 26.4477 28 27 28H30V11C30 10.4477 29.5523 10 29 10H17C16.4477 10 16 9.55228 16 9V7C16 5.34315 14.6569 4 13 4H2V28H5C5.55228 28 6 28.4477 6 29C6 29.5523 5.55228 30 5 30H1C0.447715 30 0 29.5523 0 29V3Z" fill="black"/>
<path d="M18.5 8C19.0523 8 19.5 8.44772 19.5 9V9C19.5 9.55229 19.0523 10 18.5 10L9 10C8.44772 10 8 9.55228 8 9V9C8 8.44771 8.44772 8 9 8L18.5 8Z" fill="black"/>
<path d="M24 27C24 27.5523 23.5523 28 23 28V28C22.4477 28 22 27.5523 22 27L22 13C22 12.4477 22.4477 12 23 12V12C23.5523 12 24 12.4477 24 13L24 27Z" fill="black"/>
<path fill-rule="evenodd" clip-rule="evenodd" d="M8 29C8 27.3431 9.34315 26 11 26H23C23.5523 26 24 26.4477 24 27C24 27.5523 23.5523 28 23 28H11C10.4477 28 10 28.4477 10 29C10 29.5523 10.4477 30 11 30H23C23.5523 30 24 30.4477 24 31C24 31.5523 23.5523 32 23 32H11C9.34315 32 8 30.6569 8 29Z" fill="black"/>
<path fill-rule="evenodd" clip-rule="evenodd" d="M11.5 14C10.6716 14 10 14.6716 10 15.5V29C10 29.5523 9.55228 30 9 30C8.44772 30 8 29.5523 8 29V15.5C8 13.567 9.567 12 11.5 12H23C23.5523 12 24 12.4477 24 13C24 13.5523 23.5523 14 23 14H11.5Z" fill="black"/>
<path d="M22 30C22 30.5523 21.5523 31 21 31V31C20.4477 31 20 30.5523 20 30L20 28C20 27.4477 20.4477 27 21 27V27C21.5523 27 22 27.4477 22 28L22 30Z" fill="black"/>
</svg>
