<svg width="32" height="32" viewBox="0 0 32 32" fill="none" xmlns="http://www.w3.org/2000/svg">
<path fill-rule="evenodd" clip-rule="evenodd" d="M8 7C8 4.23858 10.2386 2 13 2H27.2857C27.838 2 28.2857 2.44772 28.2857 3C28.2857 3.55228 27.838 4 27.2857 4H27C25.3431 4 24 5.34315 24 7V23H22V7C22 5.87439 22.3719 4.83566 22.9996 4H13C11.3431 4 10 5.34315 10 7V22H8V7Z" fill="black"/>
<path fill-rule="evenodd" clip-rule="evenodd" d="M22 7C22 4.23858 24.2386 2 27 2C29.7614 2 32 4.23858 32 7V10H22V7ZM27 4C25.3431 4 24 5.34315 24 7V8H30V7C30 5.34315 28.6569 4 27 4Z" fill="black"/>
<path fill-rule="evenodd" clip-rule="evenodd" d="M24 25C24 27.7614 21.7614 30 19 30C16.2386 30 14 27.7614 14 25V23H16V25C16 26.6569 17.3431 28 19 28C20.6569 28 22 26.6569 22 25V23H24V25Z" fill="black"/>
<path fill-rule="evenodd" clip-rule="evenodd" d="M19 28C17.3431 28 16 26.6569 16 25V22H0V25C0 27.7614 2.23858 30 5 30H19V28ZM5 28H14.9996C14.3719 27.1643 14 26.1256 14 25V24H2V25C2 26.6569 3.34315 28 5 28Z" fill="black"/>
</svg>
