<svg width="32" height="32" viewBox="0 0 32 32" fill="none" xmlns="http://www.w3.org/2000/svg">
<g clip-path="url(#clip0_613_1737)">
<path d="M0 21C0 16.0294 3.40952 12 7.61538 12H14.3846C18.5905 12 22 16.0294 22 21C22 22.6569 20.8635 24 19.4615 24H2.53846C1.13651 24 0 22.6569 0 21Z" fill="#CDCDCE"/>
<path d="M8 28.5C8 22.701 11.7195 18 16.3077 18H23.6923C28.2805 18 32 22.701 32 28.5C32 30.433 30.7602 32 29.2308 32H10.7692C9.23983 32 8 30.433 8 28.5Z" fill="#8A8E8F"/>
<path d="M4 7C4 10.866 7.13401 14 11 14C14.866 14 18 10.866 18 7C18 3.13401 14.866 0 11 0C7.13401 0 4 3.13401 4 7Z" fill="#FFF1C8"/>
<path d="M12 12C12 16.4183 15.5817 20 20 20C24.4183 20 28 16.4183 28 12C28 7.58172 24.4183 4 20 4C15.5817 4 12 7.58172 12 12Z" fill="#FFE599"/>
</g>
<defs>
<clipPath id="clip0_613_1737">
<rect width="32" height="32" fill="white"/>
</clipPath>
</defs>
</svg>
