<svg width="32" height="32" viewBox="0 0 32 32" fill="none" xmlns="http://www.w3.org/2000/svg">
<path fill-rule="evenodd" clip-rule="evenodd" d="M14 24C19.5228 24 24 19.5228 24 14C24 8.47715 19.5228 4 14 4C8.47715 4 4 8.47715 4 14C4 19.5228 8.47715 24 14 24ZM14 26C20.6274 26 26 20.6274 26 14C26 7.37258 20.6274 2 14 2C7.37258 2 2 7.37258 2 14C2 20.6274 7.37258 26 14 26Z" fill="black"/>
<path fill-rule="evenodd" clip-rule="evenodd" d="M14 9C11.2386 9 9 11.2386 9 14C9 14.5523 8.55228 15 8 15C7.44772 15 7 14.5523 7 14C7 10.134 10.134 7 14 7C14.5523 7 15 7.44772 15 8C15 8.55228 14.5523 9 14 9Z" fill="black"/>
<path fill-rule="evenodd" clip-rule="evenodd" d="M20.0061 22.1273L22.1274 20.006L29.9274 27.806C30.5132 28.3918 30.5132 29.3415 29.9274 29.9273C29.3416 30.5131 28.3919 30.5131 27.8061 29.9273L20.0061 22.1273Z" fill="black"/>
</svg>
