<svg width="32" height="32" viewBox="0 0 32 32" fill="none" xmlns="http://www.w3.org/2000/svg">
<g clip-path="url(#clip0_613_1606)">
<path d="M0 21C0 16.0294 3.40952 12 7.61538 12H14.3846C18.5905 12 22 16.0294 22 21C22 22.6569 20.8635 24 19.4615 24H2.53846C1.13651 24 0 22.6569 0 21Z" fill="#CDCDCE"/>
<path fill-rule="evenodd" clip-rule="evenodd" d="M14.3846 14H7.61538C4.81425 14 2 16.8078 2 21C2 21.3767 2.12997 21.6636 2.27027 21.8294C2.40696 21.991 2.5091 22 2.53846 22H19.4615C19.4909 22 19.593 21.991 19.7297 21.8294C19.87 21.6636 20 21.3767 20 21C20 16.8078 17.1857 14 14.3846 14ZM7.61538 12C3.40952 12 0 16.0294 0 21C0 22.6569 1.13651 24 2.53846 24H19.4615C20.8635 24 22 22.6569 22 21C22 16.0294 18.5905 12 14.3846 12H7.61538Z" fill="#CDCDCE"/>
<path d="M8 28.5C8 22.701 11.7195 18 16.3077 18H23.6923C28.2805 18 32 22.701 32 28.5C32 30.433 30.7602 32 29.2308 32H10.7692C9.23983 32 8 30.433 8 28.5Z" fill="#8A8E8F"/>
<path fill-rule="evenodd" clip-rule="evenodd" d="M23.6923 20H16.3077C13.2353 20 10 23.3436 10 28.5C10 29.0498 10.1781 29.4793 10.3795 29.7339C10.5783 29.9851 10.73 30 10.7692 30H29.2308C29.27 30 29.4217 29.9851 29.6205 29.7339C29.8219 29.4793 30 29.0498 30 28.5C30 23.3436 26.7647 20 23.6923 20ZM16.3077 18C11.7195 18 8 22.701 8 28.5C8 30.433 9.23983 32 10.7692 32H29.2308C30.7602 32 32 30.433 32 28.5C32 22.701 28.2805 18 23.6923 18H16.3077Z" fill="#8A8E8F"/>
<path d="M4 7C4 10.866 7.13401 14 11 14C14.866 14 18 10.866 18 7C18 3.13401 14.866 0 11 0C7.13401 0 4 3.13401 4 7Z" fill="#CDCDCE"/>
<path d="M12 12C12 16.4183 15.5817 20 20 20C24.4183 20 28 16.4183 28 12C28 7.58172 24.4183 4 20 4C15.5817 4 12 7.58172 12 12Z" fill="#8A8E8F"/>
</g>
<defs>
<clipPath id="clip0_613_1606">
<rect width="32" height="32" fill="white"/>
</clipPath>
</defs>
</svg>
