<svg width="32" height="32" viewBox="0 0 32 32" fill="none" xmlns="http://www.w3.org/2000/svg">
<g clip-path="url(#clip0_613_1622)">
<path fill-rule="evenodd" clip-rule="evenodd" d="M23.6923 20H16.3077C13.2353 20 10 23.3436 10 28.5C10 29.0498 10.1781 29.4793 10.3795 29.7339C10.5783 29.9851 10.73 30 10.7692 30H29.2308C29.27 30 29.4217 29.9851 29.6205 29.7339C29.8219 29.4793 30 29.0498 30 28.5C30 23.3436 26.7647 20 23.6923 20ZM16.3077 18C11.7195 18 8 22.701 8 28.5C8 30.433 9.23983 32 10.7692 32H29.2308C30.7602 32 32 30.433 32 28.5C32 22.701 28.2805 18 23.6923 18H16.3077Z" fill="black"/>
<path fill-rule="evenodd" clip-rule="evenodd" d="M20 18C16.6863 18 14 15.3137 14 12C14 8.68629 16.6863 6 20 6C23.3137 6 26 8.68629 26 12C26 15.3137 23.3137 18 20 18ZM20 20C15.5817 20 12 16.4183 12 12C12 7.58172 15.5817 4 20 4C24.4183 4 28 7.58172 28 12C28 16.4183 24.4183 20 20 20Z" fill="black"/>
<path fill-rule="evenodd" clip-rule="evenodd" d="M11 12C8.23858 12 6 9.76142 6 7C6 4.23858 8.23858 2 11 2C13.1495 2 14.9821 3.35634 15.6889 5.25983C16.2489 4.90086 16.8567 4.60978 17.5005 4.39821C16.4679 1.82057 13.9466 0 11 0C7.13401 0 4 3.13401 4 7C4 9.00875 4.84611 10.8199 6.20138 12.0964C2.69295 12.7359 0 16.4786 0 21C0 22.6569 1.08485 24 2.42308 24H8.79947C9.06815 23.2852 9.39885 22.6148 9.78278 22H2.42652C2.40648 21.9942 2.34888 21.9678 2.26559 21.8646C2.13287 21.7003 2 21.4013 2 21C2 16.7139 4.7369 14 7.26923 14H12.252C12.0875 13.3608 12 12.6906 12 12C12 11.9666 12.0002 11.9332 12.0006 11.8999C11.6773 11.9655 11.3427 12 11 12ZM2.43431 22.0013C2.43425 22.0016 2.4314 22.0014 2.42652 22C2.43165 22.0002 2.43438 22.001 2.43431 22.0013Z" fill="black"/>
</g>
<defs>
<clipPath id="clip0_613_1622">
<rect width="32" height="32" fill="white"/>
</clipPath>
</defs>
</svg>
