<svg width="32" height="32" viewBox="0 0 32 32" fill="none" xmlns="http://www.w3.org/2000/svg">
<g clip-path="url(#clip0_613_1672)">
<path fill-rule="evenodd" clip-rule="evenodd" d="M6.52529 0.87868C7.0879 0.316071 7.85096 0 8.64661 0H29C30.6569 0 32 1.34315 32 3V29C32 29.5523 31.5523 30 31 30C30.4477 30 30 29.5523 30 29V3C30 2.44772 29.5523 2 29 2H8.64661C8.38139 2 8.12704 2.10536 7.9395 2.29289L2 8.2324V29C2 29.5523 2.44771 30 3 30H9C9.55229 30 10 30.4477 10 31C10 31.5523 9.55229 32 9 32H3C1.34315 32 0 30.6569 0 29V7.81818C0 7.55297 0.105357 7.29861 0.292893 7.11108L6.52529 0.87868Z" fill="black"/>
<path fill-rule="evenodd" clip-rule="evenodd" d="M24 10V2H12V10H24ZM12 0C10.8954 0 10 0.895431 10 2V10C10 11.1046 10.8954 12 12 12H24C25.1046 12 26 11.1046 26 10V2C26 0.895431 25.1046 0 24 0H12Z" fill="black"/>
<path d="M16 7C16 7.55228 15.5523 8 15 8V8C14.4477 8 14 7.55228 14 7L14 5C14 4.44772 14.4477 4 15 4V4C15.5523 4 16 4.44772 16 5L16 7Z" fill="black"/>
<path fill-rule="evenodd" clip-rule="evenodd" d="M17 26C19.7614 26 22 23.7614 22 21C22 18.2386 19.7614 16 17 16C14.2386 16 12 18.2386 12 21C12 23.7614 14.2386 26 17 26ZM17 28C20.866 28 24 24.866 24 21C24 17.134 20.866 14 17 14C13.134 14 10 17.134 10 21C10 24.866 13.134 28 17 28Z" fill="black"/>
<path fill-rule="evenodd" clip-rule="evenodd" d="M20.3754 25.2192C20.8066 24.8742 21.4359 24.9441 21.7809 25.3754L25.7809 30.3754C26.1259 30.8066 26.056 31.4359 25.6247 31.7809C25.1935 32.1259 24.5642 32.056 24.2192 31.6247L20.2192 26.6247C19.8742 26.1935 19.9441 25.5642 20.3754 25.2192Z" fill="black"/>
</g>
<defs>
<clipPath id="clip0_613_1672">
<rect width="32" height="32" fill="white"/>
</clipPath>
</defs>
</svg>
