<svg width="44" height="44" viewBox="0 0 44 44" fill="none" xmlns="http://www.w3.org/2000/svg">
<path fill-rule="evenodd" clip-rule="evenodd" d="M22 24C17.0294 24 13 19.9706 13 15C13 10.0294 17.0294 6 22 6C26.9706 6 31 10.0294 31 15C31 19.9706 26.9706 24 22 24ZM22 26C15.9249 26 11 21.0751 11 15C11 8.92487 15.9249 4 22 4C28.0751 4 33 8.92487 33 15C33 21.0751 28.0751 26 22 26Z" fill="black"/>
<path fill-rule="evenodd" clip-rule="evenodd" d="M4 37C4 29.8387 9.69876 24 16.7692 24H27.2308C34.3012 24 40 29.8387 40 37C40 39.743 37.8141 42 35.0769 42H8.92308C6.18592 42 4 39.743 4 37ZM16.7692 26C10.8398 26 6 30.9065 6 37C6 38.6752 7.32692 40 8.92308 40H35.0769C36.6731 40 38 38.6752 38 37C38 30.9065 33.1602 26 27.2308 26H16.7692Z" fill="black"/>
</svg>
