<svg width="44" height="44" viewBox="0 0 44 44" fill="none" xmlns="http://www.w3.org/2000/svg">
<path fill-rule="evenodd" clip-rule="evenodd" d="M5 6C4.44772 6 4 6.44772 4 7V39C4 39.5523 4.44772 40 5 40H9C9.55228 40 10 40.4477 10 41C10 41.5523 9.55228 42 9 42H5C3.34315 42 2 40.6569 2 39V7C2 5.34315 3.34315 4 5 4H19C21.7614 4 24 6.23858 24 9V12H38C40.2091 12 42 13.7909 42 16V39C42 40.6569 40.6569 42 39 42H35C34.4477 42 34 41.5523 34 41C34 40.4477 34.4477 40 35 40H39C39.5523 40 40 39.5523 40 39V16C40 14.8954 39.1046 14 38 14H23C22.4477 14 22 13.5523 22 13V9C22 7.34315 20.6569 6 19 6H5Z" fill="black"/>
<path fill-rule="evenodd" clip-rule="evenodd" d="M12 38C12 35.7909 13.7909 34 16 34H31C31.5523 34 32 34.4477 32 35C32 35.5523 31.5523 36 31 36H16C14.8954 36 14 36.8954 14 38C14 39.1046 14.8954 40 16 40H31C31.5523 40 32 40.4477 32 41C32 41.5523 31.5523 42 31 42H16C13.7909 42 12 40.2091 12 38Z" fill="black"/>
<path fill-rule="evenodd" clip-rule="evenodd" d="M29.7649 35V41H27.7649V35H29.7649Z" fill="black"/>
<path fill-rule="evenodd" clip-rule="evenodd" d="M32 19L32 35H30L30 19H32Z" fill="black"/>
<path fill-rule="evenodd" clip-rule="evenodd" d="M16.0197 20C14.9066 20 14 20.9039 14 22V38C14 38.5523 13.5523 39 13 39C12.4477 39 12 38.5523 12 38V22C12 19.7824 13.8191 18 16.0197 18H31C31.5523 18 32 18.4477 32 19C32 19.5523 31.5523 20 31 20H16.0197Z" fill="black"/>
<path fill-rule="evenodd" clip-rule="evenodd" d="M12 13C12 12.4477 12.4477 12 13 12H33V14H13C12.4477 14 12 13.5523 12 13Z" fill="black"/>
</svg>
