<svg width="44" height="44" viewBox="0 0 44 44" fill="none" xmlns="http://www.w3.org/2000/svg">
<path fill-rule="evenodd" clip-rule="evenodd" d="M22.2929 10.2929C21.9024 10.6834 21.9024 11.3166 22.2929 11.7071L33.5858 23L22.2929 34.2929C21.9024 34.6834 21.9024 35.3166 22.2929 35.7071C22.6834 36.0977 23.3166 36.0977 23.7071 35.7071L35.7071 23.7071C35.8946 23.5196 36 23.2652 36 23C36 22.7348 35.8946 22.4805 35.7071 22.2929L23.7071 10.2929C23.3166 9.9024 22.6834 9.9024 22.2929 10.2929Z" fill="black"/>
<path fill-rule="evenodd" clip-rule="evenodd" d="M35.375 23C35.375 23.5523 34.9273 24 34.375 24L9.625 24C9.07272 24 8.625 23.5523 8.625 23C8.625 22.4477 9.07272 22 9.625 22L34.375 22C34.9273 22 35.375 22.4477 35.375 23Z" fill="black"/>
</svg>
