<svg width="44" height="44" viewBox="0 0 44 44" fill="none" xmlns="http://www.w3.org/2000/svg">
<path fill-rule="evenodd" clip-rule="evenodd" d="M33.7071 21.7071C33.3166 22.0976 32.6834 22.0976 32.2929 21.7071L21 10.4142L9.70708 21.7071C9.31655 22.0976 8.68339 22.0976 8.29286 21.7071C7.90234 21.3166 7.90234 20.6834 8.29286 20.2929L20.2929 8.29289C20.4804 8.10536 20.7348 8 21 8C21.2652 8 21.5195 8.10536 21.7071 8.29289L33.7071 20.2929C34.0976 20.6834 34.0976 21.3166 33.7071 21.7071Z" fill="black"/>
<path fill-rule="evenodd" clip-rule="evenodd" d="M21 8.625C20.4477 8.625 20 9.07272 20 9.625L20 34.375C20 34.9273 20.4477 35.375 21 35.375C21.5523 35.375 22 34.9273 22 34.375L22 9.625C22 9.07272 21.5523 8.625 21 8.625Z" fill="black"/>
</svg>
