<svg width="44" height="44" viewBox="0 0 44 44" fill="none" xmlns="http://www.w3.org/2000/svg">
<path fill-rule="evenodd" clip-rule="evenodd" d="M31.6154 28H22.3846C18.0156 28 14 32.1959 14 38C14 39.3858 14.916 40 15.4615 40H38.5385C39.084 40 40 39.3858 40 38C40 32.1959 35.9844 28 31.6154 28ZM22.3846 26C16.6494 26 12 31.3726 12 38C12 40.2091 13.5498 42 15.4615 42H38.5385C40.4502 42 42 40.2091 42 38C42 31.3726 37.3506 26 31.6154 26H22.3846Z" fill="black"/>
<path fill-rule="evenodd" clip-rule="evenodd" d="M27 26C23.134 26 20 22.866 20 19C20 15.134 23.134 12 27 12C30.866 12 34 15.134 34 19C34 22.866 30.866 26 27 26ZM27 28C22.0294 28 18 23.9706 18 19C18 14.0294 22.0294 10 27 10C31.9706 10 36 14.0294 36 19C36 23.9706 31.9706 28 27 28Z" fill="black"/>
<path fill-rule="evenodd" clip-rule="evenodd" d="M17 20C13.134 20 10 16.866 10 13C10 9.13401 13.134 6 17 6C20.0469 6 22.6391 7.94664 23.6008 10.6641C24.2128 10.4142 24.8585 10.2298 25.5292 10.1196C24.3281 6.56168 20.9632 4 17 4C12.0294 4 8 8.02944 8 13C8 15.8573 9.33156 18.4037 11.408 20.0524C6.13071 20.6212 2 25.7532 2 32C2 34.2091 3.54978 36 5.46154 36H12.1436C12.2435 35.3117 12.3941 34.6433 12.5909 34H5.46154C4.91602 34 4 33.3858 4 32C4 26.1959 8.01558 22 12.3846 22H17H18.5121C18.2786 21.3394 18.1201 20.6434 18.0467 19.9223C17.7052 19.9735 17.3557 20 17 20Z" fill="black"/>
</svg>
