<svg width="44" height="44" viewBox="0 0 44 44" fill="none" xmlns="http://www.w3.org/2000/svg">
<path d="M2 32C2 25.3726 6.49437 20 12.0385 20H20.9615C26.5056 20 31 25.3726 31 32C31 34.2091 29.5019 36 27.6538 36H5.34615C3.49812 36 2 34.2091 2 32Z" fill="#CDCDCE"/>
<path d="M8 13C8 17.9706 12.0294 22 17 22C21.9706 22 26 17.9706 26 13C26 8.02944 21.9706 4 17 4C12.0294 4 8 8.02944 8 13Z" fill="#FFF1C8"/>
<path d="M12 38C12 31.3726 16.6494 26 22.3846 26H31.6154C37.3506 26 42 31.3726 42 38C42 40.2091 40.4502 42 38.5385 42H15.4615C13.5498 42 12 40.2091 12 38Z" fill="#8A8E8F"/>
<path d="M18 19C18 23.9706 22.0294 28 27 28C31.9706 28 36 23.9706 36 19C36 14.0294 31.9706 10 27 10C22.0294 10 18 14.0294 18 19Z" fill="#FFE599"/>
</svg>
